<svg width="250" height="51" viewBox="0 0 250 51" fill="none" xmlns="http://www.w3.org/2000/svg">
<g clip-path="url(#clip0_991_2)">
<mask id="mask0_991_2" style="mask-type:luminance" maskUnits="userSpaceOnUse" x="0" y="0" width="250" height="51">
<path d="M250 0H0V51H250V0Z" fill="white"/>
</mask>
<g mask="url(#mask0_991_2)">
<path d="M66.1024 34.4123C64.6631 34.4123 63.4104 34.1621 62.3444 33.6628C61.2783 33.1635 60.3892 32.4725 59.6799 31.5938C58.9691 30.715 58.4409 29.6925 58.0938 28.5288C57.7481 27.3652 57.5737 26.1204 57.5737 24.7916C57.5737 23.4628 57.7467 22.2139 58.0938 21.0423C58.4409 19.8706 58.9691 18.84 59.6799 17.952C60.3906 17.064 61.2879 16.3702 62.3718 15.8697C63.4557 15.3704 64.7261 15.1201 66.1833 15.1201C67.3564 15.1201 68.3951 15.2799 69.3019 15.5981C70.2075 15.9176 70.914 16.361 71.4204 16.9296C71.9266 17.498 72.1804 18.1624 72.1804 18.9213C72.1804 19.8174 71.9088 20.547 71.3682 21.1061C70.8263 21.6667 70.1471 21.9462 69.3293 21.9462C68.9562 21.9462 68.7696 21.8424 68.7696 21.6361C68.7696 21.5495 68.8368 21.4165 68.9699 21.2353C69.103 21.0542 69.236 20.804 69.3691 20.4858C69.5022 20.1676 69.5694 19.7655 69.5694 19.2834C69.5694 18.4739 69.258 17.819 68.6365 17.3182C68.015 16.8191 67.1971 16.5687 66.1847 16.5687C65.1721 16.5687 64.257 16.8096 63.5462 17.293C62.8355 17.7763 62.2621 18.418 61.8271 19.2196C61.3922 20.0211 61.0766 20.9091 60.8804 21.8837C60.6842 22.8584 60.5868 23.8275 60.5868 24.7928C60.5868 26.2242 60.8174 27.5343 61.2796 28.7232C61.742 29.9121 62.4033 30.8615 63.265 31.5684C64.1266 32.2755 65.1529 32.6283 66.3425 32.6283C67.532 32.6283 68.5185 32.4179 69.354 31.9945C70.1882 31.5724 70.8551 31.0079 71.353 30.301C71.4065 30.2317 71.4683 30.1971 71.5397 30.1971C71.7002 30.1971 71.8814 30.2744 72.0858 30.4302C72.2901 30.5858 72.3917 30.7496 72.3917 30.9213C72.3917 30.9733 72.3656 31.0425 72.3121 31.1278C71.6193 32.1277 70.7659 32.9252 69.7533 33.5203C68.7408 34.1155 67.5237 34.4123 66.1024 34.4123Z" fill="#F8C11E"/>
<path d="M77.7471 34.4128C77.0184 34.4128 76.4944 34.1972 76.1747 33.7657C75.8551 33.3344 75.6944 32.6368 75.6944 31.6715V16.6211C75.6944 16.2416 75.5161 16.0526 75.1621 16.0526H73.989L73.749 15.3802C74.2635 14.9315 74.8548 14.5614 75.5216 14.2685C76.1884 13.9756 76.7702 13.8291 77.2669 13.8291C77.5151 13.8291 77.7154 13.9063 77.8664 14.0621C78.0173 14.2179 78.0928 14.4163 78.0928 14.6572V31.7766C78.0928 32.3624 78.3589 32.6553 78.8927 32.6553C79.3372 32.6553 79.7804 32.4743 80.225 32.1121L80.7312 32.7845C80.2688 33.2851 79.7721 33.6806 79.2385 33.9734C78.7048 34.2664 78.2095 34.4128 77.7471 34.4128Z" fill="#F8C11E"/>
<path d="M88.8319 34.4125C87.4997 34.4125 86.3485 34.1369 85.3813 33.5844C84.4126 33.0332 83.6622 32.249 83.1298 31.2318C82.5974 30.2146 82.3298 29.0164 82.3298 27.6369C82.3298 26.2576 82.5961 25.0381 83.1298 24.0301C83.6622 23.0209 84.4126 22.242 85.3813 21.6895C86.3499 21.1383 87.4997 20.8613 88.8319 20.8613C90.1642 20.8613 91.3139 21.137 92.2825 21.6895C93.2512 22.242 94.0017 23.0209 94.5341 24.0301C95.0665 25.0381 95.334 26.2417 95.334 27.6369C95.334 29.0323 95.0677 30.2146 94.5341 31.2318C94.0017 32.249 93.2499 33.0332 92.2825 33.5844C91.3139 34.1357 90.1642 34.4125 88.8319 34.4125ZM88.7523 33.0159C89.854 33.0159 90.7596 32.5286 91.4703 31.5554C92.1811 30.5821 92.5364 29.3012 92.5364 27.7156C92.5364 27.1989 92.4787 26.6211 92.3636 25.9834C92.2483 25.3456 92.0521 24.7424 91.7776 24.1726C91.5018 23.604 91.1341 23.1341 90.6719 22.7639C90.2095 22.3938 89.6236 22.2074 88.9128 22.2074C88.1665 22.2074 87.5052 22.4365 86.9276 22.8931C86.3499 23.3498 85.9013 23.9876 85.5816 24.8064C85.2618 25.6252 85.1013 26.5784 85.1013 27.6636C85.1013 29.2839 85.4294 30.5821 86.0878 31.5554C86.7451 32.53 87.6341 33.0159 88.7523 33.0159Z" fill="#F8C11E"/>
<path d="M103.358 34.4134C102.079 34.4134 101.079 34.038 100.36 33.2883C99.6408 32.5388 99.28 31.4829 99.28 30.1209V23.6555C99.28 23.2761 99.1017 23.0871 98.7477 23.0871H97.5746L97.3345 22.4146C97.7967 21.966 98.3607 21.5959 99.0262 21.303C99.6929 21.01 100.301 20.8636 100.852 20.8636C101.101 20.8636 101.305 20.9407 101.466 21.0965C101.626 21.2523 101.706 21.4507 101.706 21.6917V29.5271C101.706 31.6308 102.559 32.6826 104.265 32.6826C105.454 32.6826 106.383 32.1833 107.05 31.182C107.717 30.1822 108.049 28.8028 108.049 27.044C108.049 26.1999 108.027 25.4756 107.981 24.8711C107.938 24.2679 107.844 23.7382 107.702 23.2801C107.559 22.8234 107.328 22.3973 107.009 21.9992L106.689 21.5852L107.009 21.1977L110.26 20.8608V31.7745C110.26 32.3097 110.518 32.576 111.033 32.576C111.442 32.576 111.877 32.4202 112.339 32.11L112.845 32.7825C112.436 33.2657 111.962 33.6572 111.42 33.9593C110.878 34.2602 110.376 34.4122 109.915 34.4122C108.547 34.4122 107.862 33.5839 107.862 31.9289C107.471 32.6879 106.871 33.2911 106.063 33.7397C105.255 34.1884 104.354 34.4122 103.359 34.4122L103.358 34.4134Z" fill="#F8C11E"/>
<path d="M119.345 34.4129C118.51 34.4129 117.729 34.18 117.001 33.714C116.272 33.2479 115.686 32.5503 115.242 31.6196C114.797 30.689 114.575 29.5254 114.575 28.1286C114.575 26.6281 114.855 25.3354 115.415 24.2503C115.974 23.1651 116.774 22.3278 117.813 21.7419C118.852 21.156 120.074 20.8631 121.478 20.8631C122.401 20.8631 123.245 20.975 124.009 21.2V16.6226C124.009 16.2431 123.831 16.054 123.477 16.054H122.304L122.063 15.3817C122.578 14.933 123.169 14.5628 123.836 14.2699C124.503 13.977 125.085 13.8306 125.581 13.8306C125.83 13.8306 126.034 13.9078 126.195 14.0636C126.355 14.2193 126.435 14.4177 126.435 14.6587V31.7781C126.435 32.3132 126.701 32.5797 127.235 32.5797C127.679 32.5797 128.122 32.4239 128.567 32.1136L129.073 32.786C128.611 33.2866 128.118 33.6821 127.594 33.9749C127.07 34.2678 126.577 34.4143 126.115 34.4143C125.387 34.4143 124.863 34.1985 124.543 33.7672C124.223 33.3359 124.063 32.6383 124.063 31.673C123.298 32.7248 122.53 33.4437 121.758 33.8324C120.985 34.2199 120.181 34.4129 119.345 34.4129ZM120.412 32.4211C121.087 32.4211 121.74 32.2321 122.371 31.8527C123.001 31.4731 123.566 30.8794 124.063 30.0686V23.0866C123.245 22.5526 122.375 22.2851 121.452 22.2851C120.155 22.2851 119.151 22.7551 118.44 23.695C117.729 24.635 117.374 25.9491 117.374 27.6387C117.374 28.8117 117.517 29.7464 117.801 30.444C118.085 31.1416 118.462 31.6462 118.933 31.9566C119.403 32.2667 119.896 32.4211 120.412 32.4211Z" fill="#F8C11E"/>
<path d="M130.531 34.3914L130.215 33.5233L130.82 33.3702C131.487 33.1825 131.934 32.9362 132.162 32.6299C132.39 32.3237 132.503 31.7791 132.503 30.995V18.3757C132.503 17.9671 132.31 17.7634 131.924 17.7634H130.397L130.082 16.818C130.537 16.6476 131.122 16.4771 131.833 16.3068C132.543 16.1363 133.316 15.9912 134.149 15.8727C134.981 15.7541 135.802 15.6943 136.61 15.6943C138.311 15.6943 139.685 15.9206 140.73 16.3706C141.774 16.8221 142.537 17.4305 143.02 18.1974C143.503 18.9642 143.745 19.8071 143.745 20.7257C143.745 21.6443 143.521 22.4712 143.074 23.2541C142.626 24.037 141.928 24.6507 140.981 25.0927C142.175 25.4683 143.095 26.0421 143.746 26.817C144.395 27.5919 144.72 28.4386 144.72 29.3586C144.72 30.3293 144.496 31.1934 144.049 31.951C143.602 32.7086 142.877 33.3049 141.877 33.7391C140.877 34.173 139.543 34.39 137.876 34.39H130.532L130.531 34.3914ZM138.033 33.0626C139.296 33.0626 140.27 32.7005 140.955 31.9776C141.64 31.2546 141.981 30.3386 141.981 29.2322C141.981 28.5851 141.814 27.994 141.481 27.4574C141.147 26.9208 140.668 26.4907 140.045 26.1673C139.423 25.8436 138.672 25.6812 137.795 25.6812C137.48 25.6812 137.164 25.648 136.847 25.5788C136.532 25.5109 136.277 25.435 136.084 25.3485C135.943 25.2805 135.843 25.1953 135.781 25.0927C135.72 24.9902 135.689 24.889 135.689 24.7866C135.689 24.4804 135.811 24.3272 136.058 24.3272C136.164 24.3272 136.308 24.3565 136.493 24.4164C136.677 24.4764 136.971 24.5056 137.376 24.5056C138.587 24.5056 139.516 24.1568 140.166 23.4578C140.815 22.7602 141.14 21.8655 141.14 20.7763C141.14 19.6872 140.781 18.8698 140.061 18.1708C139.34 17.473 138.28 17.123 136.876 17.123C136.349 17.123 135.964 17.1868 135.718 17.3146C135.473 17.4424 135.311 17.5996 135.231 17.7873C135.151 17.975 135.113 18.1454 135.113 18.2986V29.7169C135.113 30.5169 135.213 31.1427 135.416 31.5941C135.618 32.0454 135.877 32.3769 136.193 32.59C136.508 32.803 136.828 32.9348 137.153 32.9855C137.478 33.036 137.772 33.0626 138.035 33.0626H138.033Z" fill="#7F7F7F"/>
<path d="M153.405 34.7495C152.177 34.7495 151.111 34.4765 150.207 33.9321C149.303 33.3875 148.602 32.6259 148.101 31.646C147.6 30.6675 147.351 29.5224 147.351 28.211C147.351 26.8316 147.631 25.6307 148.193 24.6094C148.754 23.5882 149.549 22.7921 150.575 22.2209C151.601 21.651 152.799 21.3647 154.168 21.3647C155.186 21.3647 156.025 21.5432 156.682 21.9013C157.34 22.2596 157.832 22.7229 158.155 23.2939C158.481 23.8651 158.642 24.4736 158.642 25.1207C158.642 25.8197 158.453 26.5 158.077 27.1644C157.7 27.8288 157.139 28.3734 156.392 28.7995C155.646 29.2255 154.721 29.4385 153.615 29.4385C153.44 29.4385 153.19 29.4172 152.865 29.3745C152.54 29.332 152.216 29.264 151.891 29.1696C151.566 29.0764 151.29 28.9525 151.062 28.7995C150.834 28.6463 150.72 28.4585 150.72 28.2375C150.72 28.1017 150.76 27.9739 150.838 27.8541C150.918 27.7356 151.01 27.6758 151.114 27.6758C151.254 27.6758 151.434 27.7316 151.653 27.8421C151.873 27.9527 152.254 28.0085 152.799 28.0085C153.554 28.0085 154.177 27.8674 154.668 27.5864C155.159 27.3056 155.528 26.9394 155.774 26.4881C156.019 26.0367 156.143 25.5733 156.143 25.0955C156.143 24.4657 155.933 23.8998 155.511 23.3966C155.09 22.8946 154.467 22.643 153.643 22.643C152.519 22.643 151.642 23.1196 151.01 24.0728C150.379 25.0275 150.062 26.4056 150.062 28.211C150.062 29.71 150.391 30.8925 151.048 31.7618C151.707 32.6299 152.675 33.064 153.957 33.064C154.694 33.064 155.387 32.9455 156.037 32.7058C156.686 32.4674 157.274 32.1013 157.8 31.6074C157.87 31.5394 157.95 31.5049 158.037 31.5049C158.177 31.5049 158.327 31.5861 158.485 31.7471C158.642 31.9095 158.722 32.0747 158.722 32.2451C158.722 32.3304 158.686 32.4076 158.616 32.4755C157.265 33.9919 155.529 34.7495 153.405 34.7495Z" fill="#7F7F7F"/>
<path d="M167.33 34.7495C166.102 34.7495 165.035 34.4765 164.131 33.9321C163.226 33.3875 162.526 32.6259 162.026 31.646C161.524 30.6675 161.274 29.5224 161.274 28.211C161.274 26.8316 161.554 25.6307 162.116 24.6094C162.678 23.5882 163.473 22.7921 164.498 22.2209C165.526 21.651 166.723 21.3647 168.092 21.3647C169.11 21.3647 169.949 21.5432 170.605 21.9013C171.264 22.2596 171.755 22.7229 172.08 23.2939C172.405 23.8651 172.567 24.4736 172.567 25.1207C172.567 25.8197 172.377 26.5 172.002 27.1644C171.624 27.8288 171.062 28.3734 170.315 28.7995C169.57 29.2255 168.645 29.4385 167.538 29.4385C167.363 29.4385 167.113 29.4172 166.788 29.3745C166.463 29.332 166.14 29.264 165.814 29.1696C165.489 29.0764 165.213 28.9525 164.986 28.7995C164.758 28.6463 164.643 28.4585 164.643 28.2375C164.643 28.1017 164.683 27.9739 164.763 27.8541C164.842 27.7356 164.933 27.6758 165.038 27.6758C165.178 27.6758 165.358 27.7316 165.576 27.8421C165.796 27.9527 166.178 28.0085 166.723 28.0085C167.478 28.0085 168.1 27.8674 168.591 27.5864C169.083 27.3056 169.452 26.9394 169.697 26.4881C169.943 26.0367 170.067 25.5733 170.067 25.0955C170.067 24.4657 169.857 23.8998 169.435 23.3966C169.014 22.8946 168.392 22.643 167.567 22.643C166.443 22.643 165.565 23.1196 164.933 24.0728C164.303 25.0275 163.986 26.4056 163.986 28.211C163.986 29.71 164.315 30.8925 164.971 31.7618C165.631 32.6299 166.599 33.064 167.881 33.064C168.618 33.064 169.311 32.9455 169.96 32.7058C170.61 32.4674 171.197 32.1013 171.723 31.6074C171.793 31.5394 171.873 31.5049 171.962 31.5049C172.1 31.5049 172.25 31.5861 172.408 31.7471C172.567 31.9095 172.645 32.0747 172.645 32.2451C172.645 32.3304 172.61 32.4076 172.54 32.4755C171.188 33.9919 169.454 34.7495 167.33 34.7495Z" fill="#7F7F7F"/>
<path d="M180.019 34.7499C179.159 34.7499 178.382 34.6221 177.689 34.3665C176.997 34.1108 176.447 33.7407 176.045 33.2547C175.64 32.7688 175.439 32.203 175.439 31.5559C175.439 30.9767 175.64 30.5 176.045 30.1259C176.447 29.7517 176.974 29.564 177.623 29.564C177.763 29.564 177.892 29.5853 178.005 29.6279C178.119 29.6706 178.177 29.7517 178.177 29.8703C178.177 29.9727 178.124 30.1299 178.019 30.3429C177.912 30.556 177.861 30.8754 177.861 31.3003C177.861 31.8115 177.992 32.2282 178.256 32.5518C178.519 32.8752 178.842 33.1136 179.229 33.2667C179.616 33.4199 179.994 33.497 180.361 33.497C181.081 33.497 181.674 33.3053 182.138 32.9219C182.603 32.5385 182.836 32.0405 182.836 31.4281C182.836 31.0193 182.701 30.6744 182.428 30.3936C182.156 30.1126 181.801 29.861 181.361 29.64C180.924 29.4188 180.459 29.2059 179.967 29.0008C179.336 28.7452 178.694 28.4469 178.045 28.1075C177.395 27.7666 176.85 27.3365 176.412 26.8174C175.973 26.2981 175.753 25.6297 175.753 24.8121C175.753 24.1145 175.963 23.5101 176.384 22.9989C176.806 22.4875 177.376 22.0881 178.096 21.7979C178.814 21.5089 179.631 21.3638 180.543 21.3638C181.771 21.3638 182.803 21.5982 183.635 22.0668C184.468 22.5355 184.885 23.1786 184.885 23.996C184.885 24.6258 184.68 25.1543 184.267 25.5792C183.853 26.0051 183.323 26.2182 182.674 26.2182C182.304 26.2182 182.121 26.1077 182.121 25.8867C182.121 25.7509 182.186 25.5764 182.318 25.3634C182.451 25.1504 182.516 24.8482 182.516 24.4567C182.516 23.9974 182.403 23.6313 182.175 23.3583C181.947 23.0866 181.669 22.8896 181.346 22.7711C181.021 22.6527 180.691 22.5927 180.36 22.5927C179.623 22.5927 179.051 22.7672 178.648 23.116C178.245 23.4648 178.043 23.9122 178.043 24.4567C178.043 24.916 178.188 25.3088 178.478 25.6323C178.767 25.9559 179.15 26.2367 179.624 26.4752C180.097 26.7135 180.599 26.9438 181.124 27.1648C181.774 27.4204 182.411 27.7054 183.033 28.021C183.656 28.3364 184.178 28.7238 184.6 29.1833C185.021 29.6426 185.231 30.2217 185.231 30.9207C185.231 32.079 184.758 33.0071 183.81 33.7047C182.861 34.4025 181.599 34.7525 180.019 34.7525V34.7499Z" fill="#7F7F7F"/>
<path d="M197.261 34.0508L196.915 33.6366L197.261 33.1706C197.707 32.602 198.016 32.003 198.194 31.3733C198.372 30.7447 198.462 29.9034 198.462 28.8515V18.9218C198.462 18.1123 198.403 17.581 198.288 17.3308C198.173 17.0804 197.928 16.9552 197.556 16.9552H196.356C195.734 16.9552 195.24 17.0205 194.877 17.1497C194.513 17.2789 194.227 17.5079 194.024 17.8354C193.82 18.1629 193.629 18.6369 193.45 19.2574L193.29 19.8525L192.384 19.5422V14.9395L192.81 14.604L193.291 14.9395C193.788 15.3017 194.801 15.4827 196.329 15.4827H203.231C204.758 15.4827 205.772 15.3017 206.269 14.9395L206.75 14.604L207.177 14.9395V19.5422L206.27 19.8525L206.11 19.2574C205.949 18.6369 205.763 18.1629 205.551 17.8354C205.337 17.5079 205.052 17.2789 204.697 17.1497C204.342 17.0205 203.844 16.9552 203.204 16.9552H202.005C201.632 16.9552 201.387 17.0804 201.272 17.3308C201.157 17.581 201.099 18.1109 201.099 18.9218V30.6103C201.099 31.4039 201.218 31.9551 201.458 32.2653C201.699 32.5755 202.148 32.8258 202.804 33.0148L203.419 33.1706L203.099 34.0494L197.261 34.0508Z" fill="white"/>
<path d="M213.17 34.4135C211.927 34.4135 210.849 34.1379 209.933 33.5854C209.018 33.0342 208.307 32.2619 207.801 31.2714C207.295 30.2808 207.04 29.1211 207.04 27.7937C207.04 26.397 207.325 25.1814 207.893 24.147C208.462 23.1125 209.266 22.307 210.306 21.7292C211.344 21.1513 212.557 20.8623 213.943 20.8623C214.973 20.8623 215.822 21.0434 216.489 21.4055C217.154 21.7676 217.651 22.2378 217.981 22.8156C218.309 23.3933 218.473 24.0098 218.473 24.6649C218.473 25.3718 218.283 26.0615 217.9 26.734C217.518 27.4062 216.949 27.9589 216.194 28.3888C215.439 28.8202 214.503 29.0359 213.384 29.0359C213.205 29.0359 212.952 29.0146 212.623 28.9707C212.295 28.928 211.967 28.8588 211.637 28.7644C211.307 28.6698 211.027 28.5446 210.798 28.3888C210.567 28.233 210.451 28.044 210.451 27.8204C210.451 27.6819 210.49 27.5527 210.57 27.433C210.65 27.313 210.742 27.2518 210.849 27.2518C210.992 27.2518 211.174 27.3078 211.395 27.4195C211.618 27.5314 212.003 27.5874 212.554 27.5874C213.318 27.5874 213.949 27.4449 214.447 27.1613C214.943 26.8763 215.317 26.5061 215.567 26.0496C215.815 25.5929 215.939 25.1228 215.939 24.6409C215.939 24.0031 215.726 23.4293 215.301 22.9207C214.874 22.4121 214.242 22.1579 213.408 22.1579C212.271 22.1579 211.384 22.6411 210.744 23.6064C210.105 24.5717 209.785 25.9683 209.785 27.7963C209.785 29.3142 210.118 30.5112 210.783 31.3912C211.451 32.2699 212.432 32.7107 213.728 32.7107C214.475 32.7107 215.175 32.5895 215.833 32.3484C216.49 32.1075 217.086 31.7374 217.618 31.2368C217.689 31.1676 217.769 31.1329 217.858 31.1329C218 31.1329 218.151 31.2155 218.311 31.3779C218.471 31.5417 218.551 31.7108 218.551 31.8825C218.551 31.969 218.514 32.0463 218.444 32.1155C217.075 33.6506 215.317 34.4175 213.167 34.4175L213.17 34.4135Z" fill="white"/>
<path d="M227.562 34.4127C226.32 34.4127 225.212 34.1197 224.245 33.534C223.277 32.9481 222.518 32.1466 221.967 31.1294C221.414 30.1122 221.14 28.9565 221.14 27.6637C221.14 26.2844 221.406 25.0861 221.939 24.0688C222.473 23.0516 223.223 22.2634 224.191 21.7029C225.161 21.1424 226.291 20.8628 227.589 20.8628C228.957 20.8628 230.08 21.1864 230.96 21.8321C231.839 22.4792 232.279 23.31 232.279 24.3272C232.279 25.0687 232.033 25.676 231.546 26.1499C231.057 26.6239 230.43 26.8609 229.667 26.8609C229.33 26.8609 229.161 26.7663 229.161 26.5759C229.161 26.4893 229.215 26.3776 229.322 26.2391C229.428 26.1006 229.533 25.8903 229.642 25.6053C229.748 25.3203 229.801 24.9369 229.801 24.455C229.801 23.7653 229.575 23.2181 229.123 22.8133C228.67 22.4086 228.061 22.2049 227.298 22.2049C226.285 22.2049 225.468 22.6881 224.846 23.6534C224.225 24.6187 223.912 25.8863 223.912 27.4546C223.912 29.0231 224.282 30.3292 225.019 31.2691C225.756 32.2092 226.756 32.6792 228.016 32.6792C229.277 32.6792 230.468 32.2478 231.535 31.3864C231.588 31.3345 231.667 31.3091 231.774 31.3091C231.916 31.3091 232.062 31.3864 232.213 31.5422C232.365 31.698 232.439 31.8616 232.439 32.0335C232.439 32.1372 232.414 32.2145 232.36 32.2664C231.739 32.9561 231.014 33.4861 230.188 33.8574C229.363 34.2276 228.487 34.414 227.564 34.414L227.562 34.4127Z" fill="white"/>
<path d="M247.015 34.4648C246.287 34.4648 245.761 34.2492 245.443 33.8179C245.123 33.3864 244.962 32.6888 244.962 31.7235V25.5684C244.962 24.6897 244.793 24.0213 244.456 23.5646C244.118 23.1079 243.523 22.8789 242.671 22.8789C241.906 22.8789 241.236 23.1717 240.659 23.7576C240.081 24.3435 239.629 25.1675 239.3 26.2274C238.97 27.2873 238.808 28.5161 238.808 29.9128C238.808 30.7236 238.87 31.3693 238.994 31.8527C239.116 32.336 239.341 32.8007 239.661 33.2493L239.98 33.6634L239.661 34.0508H234.997L234.704 33.2493L235.263 33.1201C235.726 33.0163 236.027 32.8273 236.169 32.5517C236.311 32.276 236.381 31.8193 236.381 31.1817V16.6226C236.381 16.2431 236.202 16.054 235.849 16.054H234.675L234.437 15.3817C234.951 14.933 235.542 14.5628 236.209 14.2699C236.876 13.977 237.457 13.8306 237.954 13.8306C238.202 13.8306 238.406 13.9078 238.567 14.0636C238.728 14.2193 238.808 14.4177 238.808 14.6587V24.7189C239.108 23.9601 239.523 23.2929 240.046 22.7152C240.57 22.1374 241.156 21.6845 241.804 21.3571C242.454 21.0296 243.115 20.8658 243.79 20.8658C245.123 20.8658 246.051 21.2452 246.575 22.0041C247.099 22.7631 247.362 23.952 247.362 25.5723V31.83C247.362 32.4159 247.628 32.7087 248.161 32.7087C248.605 32.7087 249.05 32.5278 249.494 32.1655L250 32.8379C249.538 33.3385 249.042 33.734 248.507 34.0268C247.973 34.3197 247.476 34.4648 247.015 34.4648Z" fill="white"/>
<mask id="mask1_991_2" style="mask-type:luminance" maskUnits="userSpaceOnUse" x="0" y="0" width="47" height="51">
<path d="M0.0192084 15.812L0.00411608 38.1877L23.0954 51L46.0315 38.3022L46.0892 12.759L23.0954 0L0 12.6431L0.0192084 15.812ZM23.1763 47.7354L2.94849 36.6273L2.88812 14.2409L23.0954 3.17543L43.2134 14.3421L43.1997 36.6512L23.1763 47.7354Z" fill="white"/>
</mask>
<g mask="url(#mask1_991_2)">
<mask id="mask2_991_2" style="mask-type:luminance" maskUnits="userSpaceOnUse" x="-1" y="-1" width="48" height="53">
<path d="M46.7767 -0.665527H-0.685791V51.6646H46.7767V-0.665527Z" fill="white"/>
</mask>
<g mask="url(#mask2_991_2)">
<path d="M46.8227 -0.697266H-0.726318V51.7074H46.8227V-0.697266Z" fill="white"/>
</g>
</g>
<path d="M32.2674 19.041C31.7679 11.585 25.8875 10.5678 25.8875 10.5678C15.5697 8.29242 13.8506 17.9012 13.8506 17.9012V28.0746L24.3905 27.8617C32.8984 26.0416 32.2674 19.041 32.2674 19.041ZM23.8787 24.0617L18.0668 24.1816V18.4857C18.0668 18.4857 19.0149 13.1055 24.7047 14.3797C24.7047 14.3797 27.9469 14.9495 28.2227 19.1235C28.2227 19.1235 28.5711 23.0433 23.8801 24.0631L23.8787 24.0617Z" fill="#7F7F7F"/>
<path d="M13.8451 28.7644L13.8259 38.4425L28.2267 38.4731C28.2267 38.4731 38.388 35.287 32.2907 22.8477C32.2907 22.8477 31.8214 24.8195 29.0074 26.7913C29.0074 26.7913 31.3522 32.8599 26.819 34.2247L18.1245 34.3084L18.2219 28.6114L13.8451 28.7644Z" fill="#FFC809"/>
</g>
</g>
<defs>
<clipPath id="clip0_991_2">
<rect width="250" height="51" fill="white"/>
</clipPath>
</defs>
</svg>
