<svg width="62" height="71" viewBox="0 0 62 71" fill="none" xmlns="http://www.w3.org/2000/svg">
<g clip-path="url(#clip0_384_180)">
<path d="M0.0258387 48.9873L0.00553687 17.8367L31.0674 0L61.9206 17.6772L61.9982 53.2375L31.0674 71L0 53.3987L0.0258387 48.9873Z" fill="#F8C01D"/>
<path d="M21.5625 46.875C19.5292 46.875 17.8021 46.1646 16.3812 44.7438C14.9604 43.3229 14.25 41.5958 14.25 39.5625C14.25 37.7625 14.8703 36.1349 16.1109 34.6797C17.3515 33.2245 18.95 32.4333 20.9062 32.3062C21.2917 29.8479 22.4031 27.8698 24.2406 26.3718C26.0781 24.8739 28.1646 24.125 30.5 24.125C33.2229 24.125 35.5287 25.0703 37.4172 26.9609C39.3057 28.8515 40.25 31.1562 40.25 33.875V35.5H41.25C42.8229 35.55 44.1328 36.1292 45.1797 37.2375C46.2266 38.3458 46.75 39.6489 46.75 41.1469C46.75 42.7406 46.2005 44.0937 45.1016 45.2062C44.0026 46.3187 42.6562 46.875 41.0625 46.875H21.5625ZM21.5625 45.25H41.0625C42.2 45.25 43.1615 44.8573 43.9469 44.0719C44.7323 43.2865 45.125 42.325 45.125 41.1875C45.125 40.05 44.7323 39.0885 43.9469 38.3031C43.1615 37.5177 42.2 37.125 41.0625 37.125H38.625V33.875C38.625 31.6271 37.8328 29.7109 36.2484 28.1266C34.6641 26.5422 32.7479 25.75 30.5 25.75C28.6063 25.75 26.9073 26.3578 25.4031 27.5735C23.899 28.7891 22.9604 30.3677 22.5875 32.3094C24.2833 32.5781 25.7552 33.3651 27.0031 34.6703C28.251 35.9755 28.875 37.6062 28.875 39.5625H27.25C27.25 37.9917 26.6948 36.651 25.5844 35.5406C24.474 34.4302 23.1333 33.875 21.5625 33.875C19.9917 33.875 18.651 34.4302 17.5406 35.5406C16.4302 36.651 15.875 37.9917 15.875 39.5625C15.875 41.1333 16.4302 42.474 17.5406 43.5844C18.651 44.6948 19.9917 45.25 21.5625 45.25Z" fill="#333333"/>
</g>
<defs>
<clipPath id="clip0_384_180">
<rect width="62" height="71" fill="white" transform="matrix(1 0 0 -1 0 71)"/>
</clipPath>
</defs>
</svg>
