<svg width="62" height="71" viewBox="0 0 62 71" fill="none" xmlns="http://www.w3.org/2000/svg">
<mask id="mask0_1041_69" style="mask-type:luminance" maskUnits="userSpaceOnUse" x="0" y="0" width="62" height="71">
<path d="M62 71H0V0H62V71Z" fill="white"/>
</mask>
<g mask="url(#mask0_1041_69)">
<path d="M0.0258387 48.9873L0.00553687 17.8367L31.0674 0L61.9206 17.6772L61.9982 53.2375L31.0674 71L0 53.3987L0.0258387 48.9873Z" fill="#F8C01D"/>
</g>
<path d="M21.5917 44.2598C21.476 44.2605 21.3612 44.2383 21.2541 44.1945C21.1469 44.1507 21.0494 44.0862 20.9673 44.0047C20.8643 43.9032 20.788 43.7779 20.745 43.6398C20.7021 43.5017 20.6938 43.3552 20.721 43.2132L21.8292 35.887C21.8564 35.7007 21.9427 35.5281 22.0754 35.3945L32.7877 24.7438C33.291 24.2662 33.9584 24 34.6522 24C35.346 24 36.0134 24.2662 36.5167 24.7438L40.2282 28.4553C40.7223 28.95 40.9998 29.6206 40.9998 30.3198C40.9998 31.019 40.7223 31.6896 40.2282 32.1843L29.5423 42.8966C29.4087 43.0293 29.2361 43.1156 29.0498 43.1428L21.7588 44.251L21.5917 44.2598ZM23.5178 36.4763L22.6383 42.3337L28.4957 41.4542L39.0497 30.953C39.1312 30.8709 39.1957 30.7734 39.2394 30.6662C39.2832 30.5591 39.3054 30.4443 39.3047 30.3286C39.3037 30.0979 39.2121 29.8768 39.0497 29.7129L35.2678 25.9663C35.1031 25.8025 34.8801 25.7106 34.6478 25.7106C34.4154 25.7106 34.1925 25.8025 34.0278 25.9663L23.5178 36.4763Z" fill="#333333"/>
<path d="M38.3814 33.6883C38.2656 33.6889 38.1509 33.6667 38.0437 33.623C37.9366 33.5792 37.8391 33.5147 37.7569 33.4332L31.5389 27.2152C31.4569 27.1332 31.3919 27.0358 31.3475 26.9287C31.3031 26.8215 31.2803 26.7067 31.2803 26.5907C31.2803 26.4748 31.3031 26.3599 31.3475 26.2528C31.3919 26.1456 31.4569 26.0483 31.5389 25.9663C31.6209 25.8843 31.7183 25.8192 31.8254 25.7749C31.9326 25.7305 32.0474 25.7076 32.1634 25.7076C32.2793 25.7076 32.3942 25.7305 32.5013 25.7749C32.6085 25.8192 32.7058 25.8843 32.7878 25.9663L39.0058 32.1843C39.0883 32.2661 39.1537 32.3634 39.1983 32.4705C39.243 32.5777 39.266 32.6927 39.266 32.8088C39.266 32.9249 39.243 33.0398 39.1983 33.147C39.1537 33.2542 39.0883 33.3514 39.0058 33.4332C38.9237 33.5147 38.8262 33.5792 38.719 33.623C38.6119 33.6667 38.4971 33.6889 38.3814 33.6883Z" fill="#333333"/>
<path d="M38.4694 46.731H20.8795C20.6462 46.731 20.4225 46.6384 20.2576 46.4734C20.0927 46.3085 20 46.0848 20 45.8515C20 45.6183 20.0927 45.3946 20.2576 45.2296C20.4225 45.0647 20.6462 44.972 20.8795 44.972H38.4694C38.7026 44.972 38.9263 45.0647 39.0913 45.2296C39.2562 45.3946 39.3489 45.6183 39.3489 45.8515C39.3489 46.0848 39.2562 46.3085 39.0913 46.4734C38.9263 46.6384 38.7026 46.731 38.4694 46.731Z" fill="#333333"/>
<path d="M26.5612 33.3893L22.0934 37.734C21.0556 38.763 21.4425 41.4718 22.4716 42.5008C23.5006 43.5299 26.3149 43.7849 27.344 42.7559L32.6209 37.391C32.6209 37.391 27.5814 39.6425 26.4029 38.3232C25.2244 37.004 26.5612 33.3893 26.5612 33.3893Z" fill="#333333"/>
</svg>
