<svg width="62" height="71" viewBox="0 0 62 71" fill="none" xmlns="http://www.w3.org/2000/svg">
<g clip-path="url(#clip0_384_228)">
<path d="M0.0258387 48.9873L0.00553687 17.8367L31.0674 0L61.9206 17.6772L61.9982 53.2375L31.0674 71L0 53.3987L0.0258387 48.9873Z" fill="#F8C01D"/>
</g>
<path d="M37.0261 26.2584L37.391 25.8934C37.3991 25.8862 37.4073 25.8794 37.4149 25.8718C37.4226 25.8641 37.4294 25.856 37.4366 25.8478L39.5231 23.7614C41.2965 21.9879 41.297 19.1021 39.5231 17.3282C38.6677 16.4715 37.5256 16 36.3067 16C35.0878 16 33.9452 16.4715 33.089 17.3277L14.3349 36.0827C14.3349 36.0827 14.3313 36.0872 14.329 36.089C14.3209 36.0976 14.3128 36.1066 14.3051 36.1157C14.3006 36.1211 14.2956 36.1265 14.2911 36.1324C14.2843 36.141 14.278 36.1495 14.2717 36.1586C14.2667 36.1658 14.2617 36.1726 14.2572 36.1798C14.2523 36.1875 14.2477 36.1952 14.2432 36.2033C14.2383 36.2123 14.2328 36.2213 14.2283 36.2308C14.2252 36.2376 14.222 36.2444 14.2188 36.2516C14.2139 36.2624 14.2094 36.2733 14.2053 36.2841C14.2044 36.2868 14.203 36.2895 14.2017 36.2922L11.0336 45.0887C10.9591 45.296 11.0106 45.5282 11.1668 45.684C11.2752 45.7928 11.4211 45.8506 11.5692 45.8506C11.6338 45.8506 11.6988 45.8398 11.7621 45.8167L20.559 42.6487C20.5631 42.6473 20.5671 42.6451 20.5712 42.6437C20.5802 42.6401 20.5888 42.6365 20.5978 42.6324C20.6069 42.6284 20.6155 42.6243 20.624 42.6198C20.6317 42.6162 20.6389 42.6121 20.6462 42.6076C20.6557 42.6022 20.6647 42.5967 20.6737 42.5909C20.68 42.5868 20.6859 42.5827 20.6918 42.5787C20.7013 42.5719 20.7107 42.5651 20.7198 42.5579C20.7252 42.5538 20.7302 42.5493 20.7356 42.5448C20.7446 42.5371 20.7537 42.529 20.7618 42.5209C20.764 42.5191 20.7658 42.5173 20.7681 42.515L24.2703 39.0128C24.773 40.686 25.6943 42.1975 26.9728 43.4277C27.9817 44.3996 28.5385 45.0594 28.8718 45.6966C28.4721 46.1003 28.2247 46.6549 28.2247 47.2664C28.2247 47.9601 28.543 48.581 29.0412 48.9911C28.6221 49.3971 28.3606 49.9652 28.3606 50.5934C28.3606 51.6394 29.0836 52.5191 30.0559 52.7603C30.0519 52.8248 30.0496 52.8899 30.0496 52.9549C30.0496 54.7171 31.483 56.1505 33.2452 56.1505H34.8855C36.649 56.1505 38.0833 54.7171 38.0833 52.9549C38.0833 52.8894 38.0806 52.8248 38.077 52.7603C39.0493 52.5191 39.7724 51.6394 39.7724 50.5934C39.7724 49.9648 39.5109 49.3962 39.0909 48.9898C39.5881 48.5801 39.906 47.9596 39.906 47.2664C39.906 46.6549 39.659 46.1008 39.2593 45.6971C39.5949 45.0567 40.1522 44.3969 41.1597 43.4282C43.1829 41.4813 44.2971 38.8628 44.2971 36.0552C44.2971 31.5115 41.2947 27.5441 37.0252 26.2574L37.0261 26.2584ZM24.1796 37.4953C24.1796 37.4953 24.1782 37.4967 24.1773 37.4976L20.3662 41.3087L18.3579 39.3004L31.5454 26.1107L33.555 28.1203L24.1796 37.4953ZM34.3598 27.3151L29.5357 22.4915L31.3828 20.6444L36.2064 25.4685L35.5091 26.1658C35.5091 26.1658 35.5078 26.1671 35.5073 26.1676L34.3593 27.3156L34.3598 27.3151ZM33.8946 18.1325C34.5359 17.4912 35.3931 17.1381 36.3076 17.1381C37.2221 17.1381 38.0784 17.4912 38.7183 18.1325C40.0483 19.4625 40.0483 21.6266 38.7183 22.9566L37.0112 24.6637L32.1875 19.8396L33.8946 18.1325ZM28.7309 23.2962L30.7406 25.3059L17.5531 38.4957L15.5425 36.4851L28.7309 23.2962ZM14.969 37.5211L17.1502 39.7024L19.3288 41.8809L12.514 44.3354L14.9685 37.5206L14.969 37.5211ZM34.8859 55.0133H33.2457C32.1112 55.0133 31.1881 54.0903 31.1881 52.9558C31.1881 52.9124 31.1899 52.8695 31.1922 52.8266H36.9417C36.9444 52.8695 36.9457 52.9124 36.9457 52.9558C36.9457 54.0903 36.0217 55.0133 34.8859 55.0133ZM37.54 51.6886H30.5934C29.99 51.6886 29.4991 51.1977 29.4991 50.5943C29.4991 49.991 29.99 49.5001 30.5934 49.5001H37.54C38.1434 49.5001 38.6343 49.991 38.6343 50.5943C38.6343 51.1977 38.1434 51.6886 37.54 51.6886ZM30.4574 48.3616C29.8541 48.3616 29.3632 47.8707 29.3632 47.2673C29.3632 46.664 29.8541 46.1731 30.4574 46.1731H37.6737C38.2771 46.1731 38.768 46.664 38.768 47.2673C38.768 47.8707 38.2771 48.3616 37.6737 48.3616H30.4574ZM33.2389 40.3414H34.8995V45.0345H33.2312V40.3414H33.2389ZM40.3712 42.6085C39.2946 43.6436 38.6736 44.3806 38.2775 45.1185C38.0851 45.0644 37.8828 45.035 37.6737 45.035H36.038V40.3418H37.349C38.6853 40.3418 39.7728 39.2544 39.7728 37.918C39.7728 36.5817 38.6853 35.492 37.349 35.492C35.9617 35.492 34.9415 36.5519 34.923 38.012L34.9071 39.2038H33.224L33.2082 38.0124C33.1897 36.5519 32.1699 35.4924 30.7844 35.4924C29.4481 35.4924 28.3606 36.5808 28.3606 37.9185C28.3606 39.2562 29.4481 40.3423 30.7844 40.3423H32.0932V45.0354H30.4574C30.2479 45.0354 30.0451 45.0653 29.8527 45.1194C29.3997 44.2781 28.7002 43.5126 27.7627 42.6094C26.4742 41.3693 25.5931 39.8098 25.2011 38.0838L34.7391 28.5458C34.7473 28.5385 34.7554 28.5318 34.7631 28.5241C34.7708 28.5164 34.7775 28.5083 34.7848 28.5001L36.0944 27.1905C40.2059 28.1267 43.1599 31.8073 43.1599 36.0565C43.1599 38.5517 42.1695 40.8788 40.3716 42.6089L40.3712 42.6085ZM36.0452 39.2033L36.0606 38.0264C36.0696 37.3314 36.4711 36.6301 37.3486 36.6301C38.0576 36.6301 38.6343 37.2077 38.6343 37.918C38.6343 38.6284 38.0576 39.2038 37.3486 39.2038L36.0452 39.2033ZM32.0855 39.2033H30.7844C30.0754 39.2033 29.4987 38.6266 29.4987 37.9176C29.4987 37.2086 30.0754 36.6296 30.7844 36.6296C31.6601 36.6296 32.0611 37.331 32.0701 38.0264L32.0855 39.2033ZM50 36.593C50 36.9073 49.7453 37.1621 49.431 37.1621H46.7005C46.3862 37.1621 46.1315 36.9073 46.1315 36.593C46.1315 36.2787 46.3862 36.024 46.7005 36.024H49.431C49.7453 36.024 50 36.2787 50 36.593ZM42.9991 28.3254C42.7769 28.1032 42.7769 27.7428 42.9991 27.5206L45.0151 25.5046C45.2373 25.2824 45.5977 25.2824 45.8199 25.5046C46.0421 25.7268 46.0421 26.0872 45.8199 26.3094L43.8039 28.3254C43.6928 28.4365 43.5474 28.492 43.4015 28.492C43.2556 28.492 43.1102 28.4365 42.9991 28.3254ZM45.8339 46.8767C46.0561 47.0989 46.0561 47.4592 45.8339 47.6814C45.7228 47.7925 45.5774 47.8481 45.4315 47.8481C45.2856 47.8481 45.1402 47.7925 45.0291 47.6814L43.0109 45.6632C42.7887 45.441 42.7887 45.0806 43.0109 44.8584C43.2331 44.6362 43.5934 44.6362 43.8156 44.8584L45.8339 46.8767ZM25.1207 44.858C25.3429 45.0802 25.3434 45.4405 25.1207 45.6627L23.1047 47.681C22.9936 47.7921 22.8478 47.8481 22.7019 47.8481C22.556 47.8481 22.4106 47.7925 22.2995 47.6814C22.0773 47.4592 22.0769 47.0989 22.2995 46.8767L24.3155 44.8584C24.5377 44.6362 24.8981 44.6358 25.1203 44.8584L25.1207 44.858Z" fill="#333333"/>
<defs>
<clipPath id="clip0_384_228">
<rect width="62" height="71" fill="white" transform="matrix(1 0 0 -1 0 71)"/>
</clipPath>
</defs>
</svg>
