<svg width="62" height="71" viewBox="0 0 62 71" fill="none" xmlns="http://www.w3.org/2000/svg">
<g clip-path="url(#clip0_384_381)">
<path d="M0.0258387 48.9873L0.00553687 17.8367L31.0674 0L61.9206 17.6772L61.9982 53.2375L31.0674 71L0 53.3987L0.0258387 48.9873Z" fill="#F8C01D"/>
</g>
<path d="M30.5 31.2119H30.4998C30.4443 31.2119 30.3893 31.2025 30.3369 31.1844L11.3328 24.5742C11.1336 24.5049 11 24.317 11 24.1059C11 23.8949 11.1336 23.707 11.3329 23.6377L30.3371 17.0275C30.4425 16.9908 30.5574 16.9908 30.6628 17.0275L49.667 23.6377C49.8663 23.707 49.9999 23.8949 49.9999 24.1059C49.9999 24.317 49.8663 24.5049 49.667 24.5742L30.6628 31.1844C30.6105 31.2025 30.5554 31.2119 30.5 31.2119ZM13.0049 24.1059L30.4999 30.1913L47.9951 24.1059L30.5 18.0207L13.0049 24.1059Z" fill="#333333"/>
<path d="M30.4999 31.2114C30.4449 31.2114 30.3897 31.2022 30.337 31.1839L20.4218 27.7351C20.2225 27.6658 20.0889 27.4779 20.0889 27.2669C20.0889 27.0559 20.2225 26.868 20.4218 26.7986L30.337 23.3498C30.4424 23.3131 30.5573 23.3131 30.6627 23.3498L40.5779 26.7986C40.7773 26.868 40.9108 27.0559 40.9108 27.2669C40.9108 27.4779 40.7773 27.6658 40.5779 27.7351L30.6627 31.1839C30.61 31.2022 30.5549 31.2114 30.4999 31.2114ZM22.0936 27.2669L30.4998 30.1908L38.906 27.2669L30.4999 24.343L22.0936 27.2669Z" fill="#333333"/>
<path d="M30.4999 49.6771C30.4449 49.6771 30.3897 49.6679 30.337 49.6496L20.4218 46.2008C20.2225 46.1315 20.0889 45.9436 20.0889 45.7326C20.0889 45.5215 20.2225 45.3336 20.4218 45.2643L30.337 41.8155C30.4424 41.7789 30.5573 41.7789 30.6627 41.8155L40.5779 45.2643C40.7773 45.3336 40.9108 45.5215 40.9108 45.7326C40.9108 45.9436 40.7773 46.1315 40.5779 46.2008L30.6627 49.6496C30.61 49.6678 30.5549 49.6771 30.4999 49.6771ZM22.0937 45.7325L30.4998 48.6564L38.906 45.7325L30.4999 42.8086L22.0937 45.7325Z" fill="#333333"/>
<path d="M30.5 55.9999C30.4459 55.9999 30.3917 55.991 30.3399 55.9733L30.3396 55.9732L11.3329 49.3622C11.1336 49.2929 11 49.105 11 48.894C11 48.6829 11.1336 48.495 11.3329 48.4257L30.3371 41.8155C30.4425 41.7789 30.5574 41.7789 30.6628 41.8155L49.667 48.4257C49.8663 48.495 49.9999 48.6829 49.9999 48.894C49.9999 49.105 49.8663 49.2929 49.667 49.3622L30.6628 55.9724C30.6101 55.9907 30.555 55.9999 30.5 55.9999ZM13.0049 48.894L30.5 54.9792L47.9951 48.894L30.5 42.8087L13.0049 48.894Z" fill="#333333"/>
<path d="M49.5046 49.39C49.2308 49.39 49.0088 49.168 49.0088 48.8942V24.1061C49.0088 23.8324 49.2308 23.6104 49.5046 23.6104C49.7783 23.6104 50.0003 23.8324 50.0003 24.1061V48.8942C50.0003 49.168 49.7783 49.39 49.5046 49.39Z" fill="#333333"/>
<path d="M11.4958 49.39C11.222 49.39 11 49.168 11 48.8942V24.1061C11 23.8324 11.222 23.6104 11.4958 23.6104C11.7695 23.6104 11.9915 23.8324 11.9915 24.1061V48.8942C11.9915 49.168 11.7695 49.39 11.4958 49.39Z" fill="#333333"/>
<path d="M30.4999 49.3902C30.2262 49.3902 30.0042 49.1682 30.0042 48.8944L30.0039 30.7165C30.0039 30.4427 30.2259 30.2207 30.4997 30.2207C30.7734 30.2207 30.9954 30.4426 30.9954 30.7165L30.9957 48.8944C30.9957 49.1682 30.7737 49.3902 30.4999 49.3902Z" fill="#333333"/>
<path d="M30.4997 23.7754C30.2259 23.7754 30.0039 23.5534 30.0039 23.2797L30.0042 17.4958C30.0042 17.222 30.2262 17 30.4999 17C30.7737 17 30.9957 17.222 30.9957 17.4958L30.9954 23.2797C30.9954 23.5535 30.7735 23.7754 30.4997 23.7754Z" fill="#333333"/>
<path d="M30.4997 56C30.2259 56 30.0039 55.778 30.0039 55.5043L30.0042 49.7204C30.0042 49.4466 30.2262 49.2246 30.4999 49.2246C30.7737 49.2246 30.9957 49.4466 30.9957 49.7204L30.9954 55.5043C30.9954 55.778 30.7735 56 30.4997 56Z" fill="#333333"/>
<path d="M40.4157 46.2282C40.1419 46.2282 39.9199 46.0062 39.9199 45.7325V27.4108C39.9199 27.1371 40.1419 26.915 40.4157 26.915C40.6894 26.915 40.9114 27.1371 40.9114 27.4108V45.7325C40.9114 46.0063 40.6894 46.2282 40.4157 46.2282Z" fill="#333333"/>
<path d="M20.5847 46.0845C20.5842 46.0845 20.5837 46.0845 20.5832 46.0845C20.3095 46.0837 20.0881 45.8612 20.0889 45.5874L20.1405 27.4094C20.1413 27.1361 20.3631 26.915 20.6363 26.915C20.6368 26.915 20.6373 26.915 20.6378 26.915C20.9115 26.9158 21.1329 27.1384 21.1321 27.4122L21.0805 45.5902C21.0797 45.8635 20.8579 46.0845 20.5847 46.0845Z" fill="#333333"/>
<defs>
<clipPath id="clip0_384_381">
<rect width="62" height="71" fill="white" transform="matrix(1 0 0 -1 0 71)"/>
</clipPath>
</defs>
</svg>
