<svg width="62" height="71" viewBox="0 0 62 71" fill="none" xmlns="http://www.w3.org/2000/svg">
<mask id="mask0_1042_70" style="mask-type:luminance" maskUnits="userSpaceOnUse" x="0" y="0" width="62" height="71">
<path d="M62 71H0V0H62V71Z" fill="white"/>
</mask>
<g mask="url(#mask0_1042_70)">
<path d="M0.0258387 48.9873L0.00553687 17.8367L31.0674 0L61.9206 17.6772L61.9982 53.2375L31.0674 71L0 53.3987L0.0258387 48.9873Z" fill="#F8C01D"/>
</g>
<path d="M38.5349 29.6643V27.4651H36.3357V24H34.8357V27.4651H32.9452V24H31.4452V27.4651H29.5548V24H28.0548V27.4651H26.1644V24H24.6644V27.4651H22.4651V29.6643H19V31.1643H22.4651V33.0548H19V34.5548H22.4651V36.4452H19V37.9452H22.4651V39.8356H19V41.3356H22.4651V43.5348H24.6643V47H26.1643V43.5349H28.0548V47H29.5548V43.5349H31.4452V47H32.9452V43.5349H34.8356V47H36.3356V43.5349H38.5348V41.3357H42V39.8357H38.5349V37.9452H42V36.4452H38.5349V34.5548H42V33.0548H38.5349V31.1644H42V29.6644H38.5349V29.6643ZM35.8804 36.689C35.8804 37.7279 35.2402 38.6195 34.3339 38.9914C34.2719 40.2011 33.2683 41.1661 32.0435 41.1661C31.4496 41.1661 30.9077 40.9392 30.5 40.5675C30.0922 40.9392 29.5504 41.1661 28.9564 41.1661C27.7316 41.1661 26.728 40.2011 26.6661 38.9914C25.7597 38.6195 25.1195 37.7278 25.1195 36.689C25.1195 36.2683 25.2251 35.8612 25.4223 35.4996C25.2294 35.1462 25.1195 34.7412 25.1195 34.311C25.1195 33.2817 25.7571 32.3837 26.666 32.0093C26.7276 30.7993 27.7314 29.8339 28.9564 29.8339C29.5503 29.8339 30.0922 30.0608 30.4999 30.4325C30.9077 30.0608 31.4495 29.8339 32.0434 29.8339C33.2684 29.8339 34.2722 30.7993 34.3339 32.0093C35.2428 32.3837 35.8803 33.2817 35.8803 34.311C35.8803 34.7412 35.7705 35.1462 35.5775 35.4996C35.7749 35.8613 35.8804 36.2683 35.8804 36.689Z" fill="#333333"/>
<path d="M28.9564 31.3339C28.519 31.3339 28.1629 31.6898 28.1629 32.1274C28.1629 32.4565 28.3699 32.7553 28.6778 32.8708L28.151 34.2752C27.7192 34.1132 27.3564 33.8264 27.097 33.4657C26.8104 33.6399 26.6194 33.9558 26.6194 34.311C26.6194 34.8557 27.0626 35.2989 27.6074 35.2989V36.7989C27.2582 36.7989 26.9257 36.7263 26.6238 36.5958C26.6209 36.6267 26.6194 36.6578 26.6194 36.6891C26.6194 37.2339 27.0625 37.677 27.6073 37.677C27.8899 37.677 28.15 37.5616 28.3399 37.3519L29.4517 38.3589C29.1155 38.7301 28.6764 38.9875 28.1977 39.1048C28.2972 39.4295 28.5996 39.6662 28.9564 39.6662C29.3939 39.6662 29.7499 39.3102 29.7499 38.8727V32.1274C29.7499 31.6898 29.394 31.3339 28.9564 31.3339Z" fill="#333333"/>
<path d="M33.3925 36.7989V35.2989C33.9373 35.2989 34.3805 34.8557 34.3805 34.311C34.3805 33.9558 34.1896 33.6399 33.903 33.4657C33.6436 33.8264 33.2808 34.1132 32.8489 34.2752L32.3221 32.8708C32.6301 32.7553 32.837 32.4565 32.837 32.1274C32.837 31.6898 32.481 31.3339 32.0435 31.3339C31.606 31.3339 31.25 31.6898 31.25 32.1274V38.8727C31.25 39.3102 31.606 39.6662 32.0435 39.6662C32.4003 39.6662 32.7026 39.4294 32.8022 39.1048C32.3235 38.9874 31.8844 38.7301 31.5482 38.3589L32.66 37.3519C32.8498 37.5615 33.11 37.677 33.3925 37.677C33.9373 37.677 34.3805 37.2338 34.3805 36.689C34.3805 36.6577 34.379 36.6266 34.3761 36.5958C34.0742 36.7262 33.7417 36.7989 33.3925 36.7989Z" fill="#333333"/>
</svg>
