<svg width="62" height="71" viewBox="0 0 62 71" fill="none" xmlns="http://www.w3.org/2000/svg">
<g clip-path="url(#clip0_384_408)">
<path d="M0.0258387 48.9873L0.00553687 17.8367L31.0674 0L61.9206 17.6772L61.9982 53.2375L31.0674 71L0 53.3987L0.0258387 48.9873Z" fill="#F8C01D"/>
</g>
<path fill-rule="evenodd" clip-rule="evenodd" d="M29.6995 54.9585C24.9873 54.6254 20.5646 52.4985 17.2937 48.9925C14.0228 45.4865 12.1381 40.8527 12.0073 35.9947C11.8765 31.1367 13.5087 26.4026 16.5859 22.7156C19.6631 19.0286 23.9645 16.653 28.6516 16.0519L28.9339 13.5465C28.9473 13.4251 28.9955 13.3107 29.0723 13.2176C29.149 13.1245 29.251 13.0569 29.3651 13.0235C29.4792 12.9901 29.6005 12.9923 29.7134 13.0299C29.8263 13.0675 29.9258 13.1388 29.9992 13.2347L32.2255 15.9448C36.9442 16.2591 41.3795 18.3723 44.6648 21.8715C47.9501 25.3708 49.8493 30.0047 49.9914 34.8678C50.1335 39.7309 48.5083 44.4738 45.4333 48.1698C42.3583 51.8658 38.0544 54.2494 33.3626 54.8548L33.0712 57.4532C33.0577 57.5746 33.0095 57.6891 32.9327 57.7822C32.8559 57.8754 32.754 57.9429 32.6398 57.9764C32.5257 58.0099 32.4044 58.0077 32.2914 57.9702C32.1785 57.9327 32.0789 57.8615 32.0052 57.7657L29.6988 54.9585H29.6995ZM33.8807 38.0328L35.9765 35.8904C36.0321 35.8332 36.0762 35.7653 36.1063 35.6906C36.1364 35.6159 36.1519 35.5358 36.1519 35.455C36.1519 35.3741 36.1364 35.294 36.1063 35.2193C36.0762 35.1446 36.0321 35.0767 35.9765 35.0196C35.2792 34.3025 34.5798 33.5873 33.8782 32.8738C33.7656 32.7587 33.6132 32.6943 33.4545 32.6948C33.2957 32.6953 33.1437 32.7606 33.0318 32.8765C32.9199 32.9923 32.8574 33.1491 32.8578 33.3124C32.8583 33.4757 32.9218 33.6321 33.0344 33.7473L34.7025 35.4536L33.037 37.162C32.9813 37.219 32.937 37.2868 32.9067 37.3614C32.8764 37.436 32.8607 37.516 32.8604 37.5969C32.8602 37.6777 32.8754 37.7579 32.9053 37.8327C32.9351 37.9075 32.979 37.9755 33.0344 38.0328C33.0898 38.0902 33.1556 38.1358 33.2282 38.1669C33.3007 38.1981 33.3785 38.2143 33.457 38.2145C33.5356 38.2148 33.6135 38.1991 33.6862 38.1684C33.7589 38.1377 33.825 38.0925 33.8807 38.0355V38.0328ZM28.9688 37.162L27.3 35.4536L28.9688 33.7473C29.027 33.6908 29.0736 33.6229 29.1059 33.5476C29.1382 33.4723 29.1555 33.3911 29.1568 33.3088C29.1581 33.2265 29.1433 33.1447 29.1134 33.0684C29.0835 32.9921 29.039 32.9227 28.9826 32.8643C28.9262 32.806 28.859 32.7598 28.7849 32.7286C28.7109 32.6974 28.6315 32.6818 28.5515 32.6827C28.4715 32.6836 28.3925 32.7009 28.3192 32.7338C28.2458 32.7666 28.1796 32.8142 28.1244 32.8738C27.4254 33.5891 26.7237 34.3023 26.0266 35.0196C25.971 35.0767 25.9269 35.1446 25.8969 35.2193C25.8668 35.294 25.8513 35.3741 25.8513 35.455C25.8513 35.5358 25.8668 35.6159 25.8969 35.6906C25.9269 35.7653 25.971 35.8332 26.0266 35.8904L28.1224 38.0328C28.1772 38.0937 28.2433 38.1426 28.3168 38.1765C28.3904 38.2104 28.4698 38.2287 28.5504 38.2303C28.631 38.2319 28.711 38.2168 28.7858 38.1858C28.8605 38.1548 28.9284 38.1086 28.9854 38.05C29.0424 37.9913 29.0873 37.9215 29.1174 37.8446C29.1476 37.7676 29.1623 37.6853 29.1607 37.6024C29.1592 37.5195 29.1414 37.4377 29.1084 37.3621C29.0754 37.2864 29.0279 37.2184 28.9688 37.162ZM31.7087 31.6799L29.1626 38.8026C29.1079 38.9563 29.1148 39.126 29.1818 39.2744C29.2487 39.4228 29.3702 39.5377 29.5195 39.594C29.6689 39.6502 29.8338 39.6431 29.978 39.5743C30.1223 39.5054 30.234 39.3804 30.2887 39.2267L32.8335 32.1047C32.8882 31.951 32.8814 31.7813 32.8145 31.6328C32.7477 31.4844 32.6262 31.3693 32.4769 31.313C32.3275 31.2567 32.1626 31.2637 32.0183 31.3325C31.874 31.4013 31.7622 31.5263 31.7074 31.6799H31.7087ZM30.998 27.2926C29.1629 27.2926 27.3844 27.9473 25.9657 29.1451C24.547 30.3429 23.5759 32.0098 23.2176 33.8617C22.8594 35.7136 23.1363 37.6361 24.0011 39.3015C24.866 40.967 26.2653 42.2724 27.9606 42.9953C29.656 43.7183 31.5425 43.8141 33.2988 43.2665C35.0551 42.7188 36.5725 41.5616 37.5926 39.9918C38.6126 38.4221 39.0722 36.5371 38.893 34.6579C38.7137 32.7786 37.9068 31.0214 36.6097 29.6857C35.8739 28.9265 34.9997 28.3242 34.0371 27.9135C33.0746 27.5029 32.0427 27.2919 31.0006 27.2926H30.998ZM35.7614 30.5565C34.6597 29.4224 33.2098 28.7164 31.6589 28.559C30.108 28.4015 28.552 28.8022 27.2561 29.6929C25.9602 30.5835 25.0045 31.909 24.5519 33.4434C24.0993 34.9778 24.1779 36.6262 24.7741 38.1077C25.3704 39.5892 26.4475 40.8121 27.8219 41.5681C29.1962 42.3241 30.7829 42.5663 32.3114 42.2535C33.8399 41.9407 35.2157 41.0922 36.2043 39.8526C37.193 38.6131 37.7333 37.0592 37.7332 35.4556C37.7343 34.5457 37.5606 33.6444 37.2222 32.8037C36.8839 31.963 36.3874 31.1993 35.7614 30.5565ZM34.4693 25.4839L34.4415 25.4732C34.1484 25.3728 33.8827 25.202 33.6665 24.975C33.4502 24.7479 33.2896 24.4712 33.1979 24.1677L33.172 24.068C33.0622 23.7286 32.8521 23.433 32.5712 23.2224C32.2894 23.0124 31.9501 22.8997 31.6021 22.9007H30.3991C30.0493 22.899 29.7079 23.0117 29.4242 23.2224C29.1475 23.4305 28.9414 23.7228 28.835 24.058L28.7982 24.1604C28.7084 24.4619 28.5516 24.7377 28.3402 24.966C28.1275 25.1896 27.8684 25.3607 27.5823 25.4666L27.5636 25.4732C27.3969 25.5331 27.2309 25.598 27.0655 25.668C26.893 25.7411 26.7302 25.8149 26.5797 25.89H26.5764C26.2979 26.0309 25.9914 26.1033 25.681 26.1014C25.3751 26.094 25.0747 26.0156 24.8024 25.8721L24.7203 25.8255C24.4091 25.6618 24.0554 25.6039 23.7103 25.6603C23.3651 25.7167 23.0462 25.8844 22.7996 26.1393C22.5198 26.4271 22.2369 26.7409 21.9468 27.0161C21.7008 27.2687 21.5385 27.5948 21.4832 27.9479C21.4279 28.301 21.4823 28.663 21.6386 28.9824L21.6832 29.0675C21.8253 29.3493 21.903 29.6608 21.9106 29.9782C21.9125 30.3001 21.8434 30.6183 21.7084 30.9088C21.627 31.0763 21.5553 31.2412 21.4907 31.4014C21.4319 31.5476 21.3744 31.7038 21.3182 31.8667L21.3007 31.9112C21.2044 32.2116 21.0398 32.4839 20.8207 32.7058C20.6016 32.9276 20.3343 33.0925 20.0409 33.1869L19.9408 33.2201C19.6256 33.3249 19.3481 33.5245 19.1442 33.7931L19.1126 33.8337C18.9066 34.1229 18.7957 34.4722 18.796 34.8308V36.0732C18.7956 36.4319 18.9067 36.7813 19.1132 37.0703C19.3193 37.3598 19.6089 37.575 19.9408 37.6852L20.0177 37.7104C20.3116 37.8012 20.5803 37.9625 20.8018 38.1811C21.0233 38.3996 21.1912 38.6691 21.2917 38.9675L21.3007 38.9961C21.3531 39.1456 21.4138 39.3098 21.4907 39.5013C21.5605 39.6761 21.6348 39.8469 21.7155 40.0111C21.8501 40.298 21.9169 40.6135 21.9105 40.932C21.9041 41.2505 21.8247 41.5629 21.6787 41.8438L21.638 41.9209C21.4815 42.2406 21.4273 42.6031 21.4832 42.9564C21.5392 43.3098 21.7023 43.6358 21.9494 43.8879L22.3797 44.3273L22.7983 44.766C23.0451 45.0208 23.3643 45.1882 23.7097 45.2441C24.055 45.3 24.4087 45.2416 24.7197 45.0771L24.7843 45.0405C25.062 44.8917 25.3692 44.8103 25.6823 44.8026C25.9816 44.8012 26.2773 44.8694 26.5474 45.002L26.5797 45.0186C26.7308 45.0924 26.893 45.1662 27.0655 45.2386C27.238 45.3111 27.3976 45.3716 27.5643 45.4334C27.8571 45.5382 28.1225 45.7114 28.3395 45.9393C28.5511 46.1676 28.7081 46.4434 28.7982 46.7449L28.8344 46.8473C28.9408 47.1825 29.1469 47.4748 29.4236 47.6829C29.7073 47.8934 30.0487 48.0058 30.3985 48.004H31.6053C31.9533 48.0053 32.2926 47.8928 32.5744 47.6829C32.8474 47.4779 33.0535 47.1926 33.1656 46.8646L33.1888 46.7895L33.203 46.731C33.2955 46.4291 33.456 46.154 33.6716 45.9283C33.8872 45.7025 34.1517 45.5325 34.4435 45.4321C34.6231 45.3656 34.793 45.2991 34.95 45.2326C35.0869 45.1741 35.2332 45.1059 35.3886 45.0279L35.4171 45.0153C35.6947 44.8719 36.0014 44.7985 36.312 44.8011C36.6226 44.8038 36.9282 44.8824 37.2034 45.0306L37.2848 45.0771C37.5953 45.2404 37.9481 45.2986 38.2927 45.2433C38.6391 45.1881 38.9591 45.0199 39.2055 44.7633C39.4898 44.4709 39.7702 44.1777 40.0557 43.8865C40.3055 43.6336 40.4697 43.3048 40.5241 42.9486C40.5729 42.6113 40.5207 42.2667 40.3743 41.9608L40.3587 41.9222C40.3501 41.8955 40.3395 41.8695 40.3271 41.8445C40.1807 41.5586 40.0998 41.2421 40.0906 40.9191C40.0878 40.6121 40.1527 40.3085 40.2806 40.0311L40.2967 39.9978C40.3613 39.8516 40.4343 39.6887 40.508 39.5079C40.5816 39.3271 40.6527 39.1456 40.7018 38.998C40.7984 38.6978 40.963 38.4254 41.182 38.2035C41.4011 37.9816 41.6683 37.8164 41.9616 37.7217L42.0624 37.6885C42.3941 37.5789 42.683 37.363 42.8868 37.0723C43.0897 36.7818 43.1984 36.4329 43.1975 36.0752V34.8354C43.1985 34.4777 43.0898 34.1288 42.8868 33.8383C42.683 33.5476 42.3941 33.3317 42.0624 33.2221L41.9849 33.1969C41.691 33.1061 41.4222 32.9448 41.2007 32.7262C40.9792 32.5077 40.8113 32.2382 40.7108 31.9398L40.7018 31.9106C40.6553 31.7776 40.5958 31.6208 40.5267 31.4506L40.5086 31.4007C40.4479 31.2525 40.3755 31.087 40.2935 30.9115V30.9082C40.157 30.6222 40.0873 30.3074 40.09 29.9888C40.0982 29.6735 40.1757 29.3642 40.3168 29.0841L40.3497 29.011L40.3781 28.9379C40.5265 28.6236 40.5752 28.2693 40.5172 27.9251C40.4593 27.5808 40.2976 27.264 40.0551 27.0194L39.6222 26.5807L39.2036 26.1413C38.9564 25.8869 38.6372 25.7197 38.2919 25.6637C37.9465 25.6077 37.5928 25.6657 37.2816 25.8295L37.2002 25.8761C36.9292 26.0217 36.6288 26.1 36.3231 26.1047C36.0174 26.1094 35.7148 26.0405 35.4397 25.9033L35.4209 25.8934C35.273 25.8189 35.1134 25.7451 34.9448 25.6733C34.7969 25.6102 34.6373 25.5477 34.4687 25.4859L34.4693 25.4839ZM34.4861 26.81C34.3427 26.7489 34.2038 26.6944 34.07 26.6452L34.0429 26.6365C33.5744 26.471 33.1504 26.1941 32.8052 25.8285C32.46 25.4628 32.2035 25.0187 32.0563 24.532L32.0337 24.4442C32.0018 24.3544 31.945 24.2763 31.8702 24.2195C31.7931 24.1631 31.7006 24.1333 31.606 24.1344H30.3991C30.3023 24.1329 30.2074 24.1626 30.1278 24.2195C30.0545 24.2749 29.9997 24.3522 29.9708 24.4409L29.9417 24.5246C29.7963 25.0114 29.5415 25.4561 29.1981 25.8229C28.8598 26.1789 28.4477 26.4516 27.9926 26.6206L27.9577 26.6345C27.8085 26.6884 27.6625 26.7455 27.521 26.8054C27.3795 26.8652 27.2393 26.929 27.09 27.0048C26.6499 27.2264 26.1656 27.3393 25.6756 27.3346C25.1856 27.3299 24.7035 27.2076 24.2674 26.9775L24.177 26.9284C24.0905 26.8817 23.992 26.8642 23.8953 26.8785C23.801 26.8947 23.7142 26.9413 23.6472 27.0114C23.3726 27.2966 23.06 27.5984 22.7964 27.8896C22.7282 27.9577 22.6829 28.0464 22.6671 28.1428C22.6529 28.2421 22.6694 28.3436 22.7143 28.4327L22.7473 28.4991C22.975 28.9501 23.0988 29.4489 23.1091 29.9569C23.1141 30.4657 23.0065 30.969 22.7944 31.4286L22.7873 31.4433C22.7227 31.5762 22.6581 31.7198 22.6 31.8687C22.5418 32.0176 22.4921 32.1479 22.4449 32.2815L22.4339 32.3174C22.276 32.795 22.0115 33.228 21.6617 33.5815C21.3119 33.9351 20.8865 34.1995 20.4195 34.3535L20.3136 34.3901C20.2293 34.4168 20.154 34.4675 20.0965 34.5363L20.081 34.5596C20.0261 34.6386 19.9974 34.7337 19.9989 34.8308V36.0732C19.9974 36.1705 20.0261 36.2658 20.081 36.3451C20.1397 36.4245 20.221 36.483 20.3136 36.5126L20.3885 36.5378C20.8563 36.6872 21.2838 36.9469 21.6369 37.2963C21.9899 37.6456 22.2589 38.0749 22.4223 38.55L22.4339 38.5813C22.494 38.7547 22.5509 38.9136 22.6 39.0333C22.6562 39.1735 22.7182 39.3145 22.7873 39.4561L22.7944 39.4733C23.0065 39.9328 23.1141 40.4358 23.1091 40.9444C23.1 41.4526 22.9768 41.9517 22.7492 42.4028C22.7369 42.4235 22.7253 42.4487 22.7143 42.4693C22.6694 42.5584 22.6529 42.6598 22.6671 42.7591C22.6833 42.8554 22.7285 42.944 22.7964 43.0124C23.0729 43.2943 23.3681 43.6193 23.6498 43.8905C23.7168 43.9607 23.8036 44.0073 23.8979 44.0235C23.9945 44.0377 24.0931 44.0203 24.1796 43.9736L24.2442 43.9364C24.6841 43.7028 25.1705 43.5765 25.6655 43.5675C26.1457 43.5628 26.6206 43.6703 27.0545 43.8819L27.0881 43.8972C27.2367 43.9696 27.3801 44.0354 27.5177 44.0933C27.6553 44.1511 27.8059 44.2103 27.9558 44.2648H27.9603C28.4284 44.4334 28.8523 44.7112 29.1988 45.0764C29.5404 45.4428 29.7941 45.8862 29.9398 46.3713L29.9663 46.4471C29.994 46.5395 30.05 46.6202 30.1259 46.6771C30.2054 46.734 30.3003 46.7638 30.3972 46.7622H31.604C31.6986 46.763 31.791 46.7332 31.8683 46.6771C31.9408 46.6248 31.9975 46.5524 32.0317 46.4684L32.0563 46.3767C32.2041 45.8902 32.4613 45.4464 32.8069 45.0812C33.1525 44.716 33.5768 44.4398 34.0455 44.2748C34.1876 44.2236 34.3356 44.1657 34.488 44.0999C34.6276 44.0408 34.7536 43.9829 34.8627 43.9291L34.9041 43.9072C35.3459 43.6852 35.8318 43.5722 36.3235 43.577C36.8151 43.5819 37.2988 43.7044 37.7364 43.9351L37.8269 43.9836C37.9133 44.0304 38.0119 44.0478 38.1085 44.0335C38.2026 44.0171 38.2892 43.9706 38.356 43.9005L39.2101 43.0224C39.2743 42.9578 39.3176 42.8742 39.3339 42.7833C39.3502 42.6924 39.3388 42.5985 39.3012 42.5145C39.2857 42.487 39.2724 42.4583 39.2611 42.4288L39.2456 42.3882C39.0234 41.9409 38.903 41.4474 38.8935 40.9451C38.8874 40.4502 38.9912 39.9605 39.1971 39.5132L39.212 39.4787C39.285 39.3191 39.3503 39.1702 39.4058 39.0366C39.4614 38.903 39.5124 38.7647 39.5725 38.5899C39.7313 38.1129 39.9962 37.6807 40.346 37.3277C40.6959 36.9747 41.121 36.7106 41.5875 36.5565L41.6929 36.5206C41.7825 36.4922 41.861 36.4351 41.917 36.3577C41.9722 36.2758 42.0007 36.1781 41.9984 36.0785V34.8354C42.0005 34.7361 41.972 34.6386 41.917 34.5569C41.861 34.4797 41.7825 34.4228 41.6929 34.3947L41.6179 34.3695C41.1501 34.2198 40.7227 33.9599 40.3697 33.6105C40.0166 33.2611 39.7476 32.8318 39.5841 32.3566L39.5725 32.3254C39.5195 32.1718 39.4704 32.0389 39.4245 31.9265L39.4032 31.88C39.3354 31.7138 39.274 31.5676 39.2094 31.438C38.9942 30.9809 38.8851 30.4787 38.8909 29.9709C38.9006 29.4721 39.0194 28.982 39.2385 28.537L39.2585 28.4858L39.2844 28.4273C39.3287 28.3404 39.3452 28.2413 39.3315 28.1442C39.3154 28.0486 39.2702 27.9608 39.2023 27.8936C38.929 27.613 38.6305 27.2827 38.3508 27.0154C38.284 26.9454 38.1974 26.8988 38.1034 26.8825C38.0067 26.8681 37.9081 26.8855 37.8217 26.9323L37.7571 26.9696C37.3225 27.2026 36.8413 27.3287 36.3513 27.3382C35.8614 27.3477 35.3759 27.2401 34.9332 27.0241L34.8951 27.0068C34.7561 26.937 34.6185 26.8738 34.4848 26.8153L34.4861 26.81ZM33.3335 17.2923L33.8788 17.957C33.9813 18.0819 34.0315 18.2435 34.0183 18.4064C34.0051 18.5693 33.9296 18.7202 33.8084 18.8258L33.7987 18.8331L33.7774 18.8498L33.1714 19.3151C36.9486 19.8527 40.4104 21.7745 42.9211 24.7274C45.4318 27.6804 46.8227 31.4663 46.8384 35.3897C46.8541 39.3131 45.4936 43.1106 43.0066 46.0847C40.5197 49.0589 37.0733 51.01 33.3006 51.5796C33.2403 51.5912 33.1787 51.5934 33.1178 51.5862C32.9598 51.5669 32.8158 51.4839 32.7173 51.3554C32.6188 51.2269 32.5739 51.0634 32.5925 50.9009L32.6629 50.2867C32.0944 50.7223 31.5261 51.1586 30.958 51.5955L30.9257 51.6221L30.0063 52.3274L29.9566 52.366L29.9062 52.4045L29.8558 52.4431L29.8054 52.4816L29.4559 52.7475L30.456 53.9607C30.4702 53.978 30.4831 53.9959 30.4954 54.0139L32.0414 55.8964L32.2288 54.2259C32.2447 54.086 32.3067 53.9559 32.4043 53.8571C32.5019 53.7584 32.6294 53.6969 32.7656 53.6828C37.1112 53.2372 41.1461 51.1639 44.103 47.8571C47.0599 44.5504 48.7325 40.2408 48.8029 35.748C48.8732 31.2552 47.3363 26.8924 44.4845 23.4894C41.6327 20.0863 37.6648 17.8804 33.3355 17.2909L33.3335 17.2923ZM31.7378 20.4106L31.356 20.7031L28.9429 22.5597C28.8477 22.6327 28.7335 22.675 28.6148 22.6812C28.4962 22.6874 28.3784 22.6572 28.2764 22.5945C28.1745 22.5318 28.0929 22.4394 28.042 22.3289C27.9911 22.2185 27.9733 22.095 27.9907 21.974L28.1386 20.6811C24.6312 21.4011 21.5012 23.4172 19.3395 26.349C17.1779 29.2808 16.1341 32.9254 16.4052 36.5948C16.6763 40.2642 18.2435 43.7046 20.811 46.2665C23.3786 48.8284 26.7687 50.3345 30.3416 50.5007C31.2545 49.8067 32.179 49.1187 33.0648 48.44C33.1585 48.3682 33.2707 48.3262 33.3874 48.3193C33.504 48.3123 33.6201 48.3408 33.7213 48.4011C33.8224 48.4613 33.9042 48.5508 33.9564 48.6584C34.0086 48.766 34.029 48.887 34.0151 49.0064L33.8769 50.2229C37.3753 49.5005 40.4969 47.4883 42.655 44.5646C44.8131 41.6408 45.8591 38.0067 45.5964 34.3452C45.3337 30.6838 43.7803 27.2471 41.2283 24.6811C38.6764 22.1151 35.3014 20.5965 31.7378 20.4106ZM28.587 53.6051L28.127 53.0447C28.0761 52.9829 28.0376 52.9115 28.0137 52.8344C27.9897 52.7574 27.9807 52.6762 27.9872 52.5956C27.9938 52.5149 28.0157 52.4364 28.0518 52.3645C28.0878 52.2926 28.1373 52.2287 28.1974 52.1765C28.4313 51.9855 28.6681 51.7954 28.908 51.6062C25.1202 51.0859 21.6429 49.174 19.1174 46.2231C16.5918 43.2722 15.1884 39.4812 15.1659 35.5493C15.1434 31.6174 16.5033 27.8097 18.9949 24.8284C21.4865 21.8471 24.9416 19.8932 28.7233 19.327C28.7792 19.3169 28.8362 19.3151 28.8925 19.3217C29.0505 19.3402 29.1949 19.4226 29.2939 19.5506C29.3929 19.6786 29.4384 19.8419 29.4204 20.0044L29.3396 20.7117C29.9521 20.2411 30.5645 19.7713 31.177 19.3024L31.1912 19.2911L31.3456 19.1735L31.396 19.1349L31.4458 19.0964L31.4961 19.0585L31.5465 19.0199L31.7468 18.8664L31.7972 18.8278L31.8476 18.7893L31.9025 18.7487L31.9529 18.7102L32.0033 18.6723L32.1034 18.5952L32.1538 18.5566L32.2036 18.5187L32.254 18.4802L32.3044 18.4416L32.4045 18.3645L32.4549 18.3259L32.5053 18.2881L32.555 18.2495L31.4761 16.9426L31.4587 16.92L29.9644 15.102L29.7873 16.6794C29.7714 16.8197 29.7091 16.9501 29.6109 17.0488C29.5127 17.1475 29.3846 17.2086 29.2479 17.2218C24.9078 17.664 20.8764 19.7296 17.9183 23.027C14.9602 26.3245 13.2811 30.6242 13.1995 35.1109C13.1179 39.5975 14.6395 43.9589 17.4757 47.3678C20.3119 50.7768 24.2654 52.9962 28.5863 53.6051H28.587Z" fill="#333333"/>
<defs>
<clipPath id="clip0_384_408">
<rect width="62" height="71" fill="white" transform="matrix(1 0 0 -1 0 71)"/>
</clipPath>
</defs>
</svg>
