<svg width="62" height="71" viewBox="0 0 62 71" fill="none" xmlns="http://www.w3.org/2000/svg">
<g clip-path="url(#clip0_384_335)">
<path d="M0.0258387 48.9873L0.00553687 17.8367L31.0674 0L61.9206 17.6772L61.9982 53.2375L31.0674 71L0 53.3987L0.0258387 48.9873Z" fill="#F8C01D"/>
</g>
<path d="M27.5532 26.6932C27.9725 26.6932 28.3123 26.3534 28.3123 25.9341C28.3123 25.5148 27.9725 25.175 27.5532 25.175H26.734V24.3558C26.734 23.9365 26.3942 23.5967 25.9749 23.5967C25.5556 23.5967 25.2158 23.9365 25.2158 24.3558V25.175H22.7294V24.3558C22.7294 23.9365 22.3895 23.5967 21.9702 23.5967C21.551 23.5967 21.2111 23.9365 21.2111 24.3558V25.175H20.3919C19.9727 25.175 19.6328 25.5148 19.6328 25.9341C19.6328 26.3534 19.9727 26.6932 20.3919 26.6932H21.2111V29.1797H20.3919C19.9727 29.1797 19.6328 29.5195 19.6328 29.9388C19.6328 30.358 19.9727 30.6979 20.3919 30.6979H21.2111V31.5171C21.2111 31.9363 21.551 32.2762 21.9702 32.2762C22.3895 32.2762 22.7294 31.9363 22.7294 31.5171V30.6979H25.2158V31.5171C25.2158 31.9363 25.5556 32.2762 25.9749 32.2762C26.3942 32.2762 26.734 31.9363 26.734 31.5171V30.6979H27.5532C27.9725 30.6979 28.3123 30.358 28.3123 29.9388C28.3123 29.5195 27.9725 29.1797 27.5532 29.1797H26.734V26.6932H27.5532ZM25.2158 29.1797H22.7294V26.6932H25.2158V29.1797Z" fill="#333333"/>
<path d="M39.9495 38.4844C39.1407 38.4844 38.3764 38.8135 37.8159 39.3621C37.2555 38.8135 36.4912 38.4844 35.6824 38.4844C34.0018 38.4844 32.6348 39.8514 32.6348 41.532C32.6348 45.4655 37.2859 47.7703 37.4846 47.8667C37.5891 47.9178 37.7025 47.943 37.8159 47.943C37.9294 47.943 38.0428 47.9178 38.1473 47.8667C38.346 47.7703 42.9971 45.4655 42.9971 41.532C42.9971 39.8514 41.6301 38.4844 39.9495 38.4844ZM37.8159 46.3203C36.8559 45.7687 34.153 43.9954 34.153 41.532C34.153 40.6884 34.8387 40.0026 35.6824 40.0026C36.3184 40.0026 36.8782 40.3874 37.108 40.9827C37.2206 41.2755 37.5024 41.4682 37.8159 41.4682C38.1295 41.4682 38.4112 41.2755 38.5239 40.9827C38.7537 40.3874 39.3134 40.0026 39.9495 40.0026C40.7931 40.0026 41.4789 40.6884 41.4789 41.532C41.4789 43.9954 38.776 45.7687 37.8159 46.3203Z" fill="#333333"/>
<path d="M48.0273 33.1046H27.6051C26.0824 33.1046 24.8436 34.3434 24.8436 35.8661V36.3546H18.8381C18.6419 36.3546 18.4532 36.4306 18.3118 36.5667L15.4139 39.3533V37.1138C15.4139 36.6945 15.074 36.3546 14.6548 36.3546H13.7615C13.0748 36.3546 12.5182 35.798 12.5182 35.1114V20.7607C12.5182 20.0745 13.0745 19.5182 13.7607 19.5182H34.1837C34.8703 19.5182 35.4269 20.0748 35.4269 20.7615V30.8273C35.4269 31.2465 35.7667 31.5864 36.186 31.5864C36.6053 31.5864 36.9451 31.2465 36.9451 30.8273V20.7615C36.9451 19.2364 35.7088 18 34.1837 18H13.7615C12.2364 18 11 19.2364 11 20.7615V35.1122C11 36.6369 12.236 37.8729 13.7607 37.8729H13.8956V41.1362C13.8956 41.4409 14.0773 41.7152 14.3575 41.8346C14.4531 41.8753 14.5547 41.8954 14.6548 41.8954C14.8468 41.8954 15.0366 41.822 15.1811 41.6833L19.1435 37.8729H24.8436V50.2161C24.8436 51.7388 26.0824 52.9775 27.6051 52.9775H42.6452L46.6077 56.788C46.7522 56.9266 46.942 57 47.134 57C47.2341 57 47.3357 56.98 47.4313 56.9392C47.7115 56.8199 47.8931 56.5456 47.8931 56.2409V52.9775H48.0273C49.55 52.9775 50.7888 51.7388 50.7888 50.2161V35.8661C50.7888 34.3434 49.55 33.1046 48.0273 33.1046ZM49.2705 50.2161C49.2705 50.9018 48.713 51.4593 48.0273 51.4593H47.134C46.7144 51.4593 46.3749 51.7988 46.3749 52.2184V54.458L43.477 51.6713C43.3354 51.5349 43.1471 51.4593 42.9507 51.4593H27.6051C26.9194 51.4593 26.3619 50.9018 26.3619 50.2161V35.8661C26.3619 35.1804 26.9194 34.6229 27.6051 34.6229H48.0273C48.713 34.6229 49.2705 35.1804 49.2705 35.8661V50.2161Z" fill="#333333"/>
<defs>
<clipPath id="clip0_384_335">
<rect width="62" height="71" fill="white" transform="matrix(1 0 0 -1 0 71)"/>
</clipPath>
</defs>
</svg>
