<svg width="62" height="71" viewBox="0 0 62 71" fill="none" xmlns="http://www.w3.org/2000/svg">
<g clip-path="url(#clip0_533_148)">
<path d="M0.0258387 48.9873L0.00553687 17.8367L31.0674 0L61.9206 17.6772L61.9982 53.2375L31.0674 71L0 53.3987L0.0258387 48.9873Z" fill="#F8C01D"/>
<path d="M12.625 44.5625V43.1594C12.625 42.1615 13.1583 41.3333 14.225 40.675C15.2917 40.0167 16.6646 39.6875 18.3437 39.6875C18.5917 39.6875 18.8573 39.6995 19.1406 39.7234C19.424 39.7474 19.725 39.7865 20.0437 39.8406C19.7896 40.2844 19.6042 40.7396 19.4875 41.2062C19.3708 41.6729 19.3125 42.1406 19.3125 42.6094V44.5625H12.625ZM22.375 44.5625V42.7344C22.375 42.0795 22.5651 41.4809 22.9453 40.9385C23.3255 40.3962 23.8865 39.9271 24.6281 39.5313C25.3698 39.1354 26.2338 38.8385 27.2203 38.6406C28.2068 38.4427 29.2958 38.3438 30.4875 38.3438C31.7021 38.3438 32.8026 38.4427 33.7891 38.6406C34.7755 38.8385 35.6396 39.1354 36.3812 39.5313C37.1229 39.9271 37.6823 40.3962 38.0594 40.9385C38.4365 41.4809 38.625 42.0795 38.625 42.7344V44.5625H22.375ZM41.6875 44.5625V42.6187C41.6875 42.1004 41.6307 41.612 41.5172 41.1534C41.4036 40.6949 41.2333 40.2573 41.0062 39.8406C41.3458 39.7865 41.6505 39.7474 41.9203 39.7234C42.1901 39.6995 42.4458 39.6875 42.6875 39.6875C44.3667 39.6875 45.7344 40.0151 46.7906 40.6703C47.8469 41.3255 48.375 42.1552 48.375 43.1594V44.5625H41.6875ZM24.0469 42.9375H36.9625V42.5938C36.9 41.8229 36.2682 41.1927 35.0672 40.7031C33.8661 40.2136 32.3438 39.9688 30.5 39.9688C28.6562 39.9688 27.1339 40.2136 25.9328 40.7031C24.7318 41.1927 24.1031 41.8229 24.0469 42.5938V42.9375ZM18.3355 38.1562C17.6972 38.1562 17.1536 37.9298 16.7047 37.477C16.2557 37.0241 16.0312 36.4797 16.0312 35.8437C16.0312 35.2146 16.2577 34.6771 16.7105 34.2313C17.1634 33.7854 17.7078 33.5625 18.3437 33.5625C18.9729 33.5625 19.5156 33.7854 19.9719 34.2313C20.4281 34.6771 20.6562 35.2177 20.6562 35.8531C20.6562 36.4698 20.4338 37.0078 19.989 37.4672C19.5442 37.9266 18.993 38.1562 18.3355 38.1562ZM42.6875 38.1562C42.0646 38.1562 41.5234 37.9266 41.064 37.4672C40.6047 37.0078 40.375 36.4698 40.375 35.8531C40.375 35.2177 40.6047 34.6771 41.064 34.2313C41.5234 33.7854 42.0666 33.5625 42.6936 33.5625C43.3395 33.5625 43.8854 33.7854 44.3313 34.2313C44.7771 34.6771 45 35.2146 45 35.8437C45 36.4797 44.7784 37.0241 44.3352 37.477C43.8919 37.9298 43.3427 38.1562 42.6875 38.1562ZM30.511 37.125C29.5245 37.125 28.6823 36.7787 27.9844 36.086C27.2864 35.3932 26.9375 34.5521 26.9375 33.5625C26.9375 32.5531 27.2838 31.707 27.9765 31.0242C28.6692 30.3414 29.5104 30 30.5 30C31.5094 30 32.3555 30.3403 33.0383 31.021C33.7211 31.7017 34.0625 32.5452 34.0625 33.5515C34.0625 34.538 33.7222 35.3802 33.0415 36.0781C32.3607 36.776 31.5173 37.125 30.511 37.125ZM30.5156 35.5C31.049 35.5 31.5026 35.3078 31.8766 34.9234C32.2505 34.5391 32.4375 34.0802 32.4375 33.5469C32.4375 33.0135 32.2518 32.5599 31.8805 32.1859C31.5091 31.812 31.049 31.625 30.5 31.625C29.9771 31.625 29.5234 31.8107 29.1391 32.1821C28.7547 32.5534 28.5625 33.0135 28.5625 33.5625C28.5625 34.0854 28.7547 34.5391 29.1391 34.9234C29.5234 35.3078 29.9823 35.5 30.5156 35.5Z" fill="#333333"/>
</g>
<defs>
<clipPath id="clip0_533_148">
<rect width="62" height="71" fill="white" transform="matrix(1 0 0 -1 0 71)"/>
</clipPath>
</defs>
</svg>
