<svg width="399" height="109" viewBox="0 0 399 109" fill="none" xmlns="http://www.w3.org/2000/svg">
<path fill-rule="evenodd" clip-rule="evenodd" d="M117.362 80.6065V31.5107H123.674L153.677 71.0212V31.5107H159.678V80.6065H153.365L123.362 40.7065V80.6065H117.362Z" fill="#B52E31"/>
<path fill-rule="evenodd" clip-rule="evenodd" d="M208.539 78.6593C204.565 80.1399 200.279 80.9192 195.759 80.9192C177.991 80.9192 169.107 72.4249 169.107 55.3582C169.107 39.2268 177.679 31.1221 194.824 31.1221C199.733 31.1221 204.331 31.8234 208.539 33.1482V38.6033C204.331 36.9668 199.967 36.1875 195.525 36.1875C182.121 36.1875 175.419 42.5778 175.419 55.2024C175.419 68.8401 182.043 75.62 195.213 75.62C197.318 75.62 199.655 75.3083 202.227 74.7628V58.3196H208.539V78.6593Z" fill="#B52E31"/>
<path fill-rule="evenodd" clip-rule="evenodd" d="M218.671 61.6696V31.5107H224.983V61.6696C224.983 71.0991 229.659 75.8528 239.088 75.8528C248.44 75.8528 253.194 71.0991 253.194 61.6696V31.5107H259.506V61.6696C259.506 74.528 252.726 80.9962 239.088 80.9962C225.451 80.9962 218.671 74.528 218.671 61.6696Z" fill="#B52E31"/>
<path fill-rule="evenodd" clip-rule="evenodd" d="M277.119 31.5107V75.4632H302.836V80.6065H270.806V31.5107H277.119Z" fill="#B52E31"/>
<path fill-rule="evenodd" clip-rule="evenodd" d="M311.954 80.6069H305.33L329.722 25.043L354.114 80.6069H347.1L340.788 65.1768H324.578L326.293 60.0335H338.684L329.488 37.8235L311.954 80.6069Z" fill="#B52E31"/>
<path fill-rule="evenodd" clip-rule="evenodd" d="M360.893 80.6065V31.5107H381.856C391.208 31.5107 395.883 35.4072 395.883 43.2781C395.883 49.6684 391.285 54.4221 382.168 57.4614L399.001 80.6065H390.662L375.076 58.5524V54.4221C384.428 52.9414 389.181 49.3567 389.181 43.5899C389.181 39.0699 386.61 36.81 381.388 36.81H367.361V80.6065H360.893Z" fill="#B52E31"/>
<path fill-rule="evenodd" clip-rule="evenodd" d="M0 18.4185L50.2647 0.494629L101.854 18.1068L93.5158 84.5809L50.2647 108.505L7.71505 84.8926L0 18.4185Z" fill="#E23237"/>
<path fill-rule="evenodd" clip-rule="evenodd" d="M101.854 18.1068L50.2642 0.494629V108.505L93.5152 84.5809L101.854 18.1068Z" fill="#B52E31"/>
<path fill-rule="evenodd" clip-rule="evenodd" d="M50.3417 13.1201L19.0139 82.7894L30.7034 82.5556L37.0157 66.8138H50.3417H64.9925L71.8503 82.7115L82.9943 82.9453L50.3417 13.1201ZM50.4196 35.486L61.0181 57.6181H50.8872H50.3417H41.146L50.4196 35.486Z" fill="white"/>
</svg>
