<?xml version="1.0" encoding="utf-8"?>
<!-- Generator: Adobe Illustrator 26.0.2, SVG Export Plug-In . SVG Version: 6.00 Build 0)  -->
<svg version="1.1" id="Layer_1" xmlns="http://www.w3.org/2000/svg" xmlns:xlink="http://www.w3.org/1999/xlink" x="0px" y="0px"
	 viewBox="0 0 728.6 653.1" style="enable-background:new 0 0 728.6 653.1;" xml:space="preserve">
<style type="text/css">
	.st0{fill:#FFFFFF;}
	.st1{font-family:'Avenir-Medium';}
	.st2{font-size:109px;}
</style>
<g id="Logo-Outline">
	<path class="st0" d="M147.9,422.7c4.7,0,8.5,3.9,8.6,8.6v44.4c0,18.7,16.7,33.9,37.3,33.9H315v-84.9c0-27.5,22.3-49.8,49.8-49.8
		h2.6c27.5,0,49.8,22.3,49.8,49.8v84.9h119.2c20.5,0,37.3-15.2,37.3-33.9v-39.2c-30.7-4.2-53.5-30.4-53.6-61.4v-89
		c0-4.7,3.8-8.6,8.6-8.6s8.6,3.8,8.6,8.6v89c0,24.9,20.2,45,45,45c24.9,0,45-20.2,45-45v-89c0-4.7,3.8-8.6,8.6-8.6s8.6,3.8,8.6,8.6
		v89c-0.1,31-22.9,57.2-53.6,61.4v39.2c0,28.1-24.3,50.8-54.2,50.8H397v-101c0-16.5-13.3-29.9-29.8-29.9c0,0,0,0-0.1,0h-2.6
		c-16.5,0-29.9,13.3-29.9,29.8v0.1v101H193.5c-29.9,0-54.2-22.7-54.2-50.8v-44.4c-0.1-4.7,3.7-8.5,8.4-8.6
		C147.7,422.7,147.8,422.7,147.9,422.7z"/>
	<path class="st0" d="M609,379.3c-4.7,0-8.5-3.9-8.6-8.6V286c0-4.7,3.8-8.6,8.6-8.6s8.6,3.8,8.6,8.6v84.8
		C617.5,375.4,613.7,379.2,609,379.3z"/>
	<path class="st0" d="M573.3,371v-84.8c0-4.7,3.8-8.6,8.6-8.6s8.6,3.8,8.6,8.6V371c0,4.7-3.9,8.5-8.6,8.6
		C577.2,379.4,573.4,375.6,573.3,371z"/>
	<path class="st0" d="M546,371v-84.8c0-4.7,3.8-8.6,8.6-8.6s8.6,3.8,8.6,8.6V371c0,4.7-3.9,8.5-8.6,8.6
		C549.9,379.4,546.1,375.6,546,371z"/>
	<path class="st0" d="M139.3,277.6c-31.1,5.2-55,38.7-55,79.1c0,44,28.5,79.9,63.6,79.9s63.6-35.9,63.6-79.9
		c0-40.5-24.1-73.9-55.2-79.1H139.3z M101.2,357c0-34.9,20.9-63.2,46.6-63.2s46.6,28.3,46.6,63.2c0,34.7-20.9,63-46.6,63
		S101.2,391.6,101.2,357L101.2,357z"/>
	<path class="st0" d="M117.4,333.2c3.2-7,8.4-13.3,15.3-16.3c-4.8,5.8-7.4,12.2-9.2,18.7c-1.8,6.6-2.8,13.5-2.8,20.3
		c-0.2,6.9,0.2,13.9,1.2,20.7c0.9,7.1,2.8,14,5.6,20.5c-6-4.6-9.8-11.8-12-18.9c-2.4-7.3-3.4-14.9-3.2-22.5
		C112.4,348,114.1,340.3,117.4,333.2z"/>
	<path class="st0" d="M333,8.8L160.1,149.4c-11.8,9.3-18.7,23.5-18.8,38.5v62.7c0.2,4.7,4.1,8.5,8.9,8.3c4.5-0.2,8.1-3.8,8.3-8.3
		v-62.7c0-9.6,4.6-18.8,12.6-25.4L343.6,22"/>
	<path class="st0" d="M166.1,166.2L339,25.6c14.6-11.6,35.2-11.6,49.7,0l172.9,140.6c7.8,6.1,12.4,15.4,12.6,25.4v59.7
		c0,4.7,3.8,8.5,8.5,8.6h0.1c4.7,0,8.6-3.9,8.6-8.6v-59.7c0-14.8-6.8-28.8-18.8-38.5L399.7,12.4c-20.2-16.6-50.9-16.6-71.1,0
		L155.8,153"/>
</g>
<text transform="matrix(1 0 0 1 9.724 637.1285)" class="st0 st1 st2">DoHomeFood</text>
</svg>
