<svg width="70" height="49" viewBox="0 0 70 49" fill="none" xmlns="http://www.w3.org/2000/svg">
<g clip-path="url(#clip0_4222_41)">
<path d="M68.454 7.58198C68.0525 6.11651 67.2693 4.78048 66.1824 3.70694C65.0955 2.6334 63.7428 1.85981 62.259 1.46319C56.8269 0 34.9645 0 34.9645 0C34.9645 0 13.101 0.04429 7.66888 1.50748C6.18507 1.90412 4.83236 2.67776 3.74545 3.75135C2.65853 4.82494 1.87535 6.16102 1.47388 7.62654C-0.169205 17.1592 -0.806588 31.6847 1.519 40.836C1.92051 42.3015 2.70371 43.6375 3.79062 44.7111C4.87753 45.7846 6.23022 46.5582 7.714 46.9548C13.1461 48.418 35.0091 48.418 35.0091 48.418C35.0091 48.418 56.8718 48.418 62.3036 46.9548C63.7874 46.5582 65.1402 45.7847 66.2271 44.7111C67.3141 43.6376 68.0973 42.3015 68.4989 40.836C70.2319 31.2899 70.766 16.7733 68.454 7.58198Z" fill="#FF0000"/>
<path d="M28.0068 34.5842L46.1434 24.209L28.0068 13.8337V34.5842Z" fill="white"/>
</g>
<defs>
<clipPath id="clip0_4222_41">
<rect width="70" height="48.6111" fill="white"/>
</clipPath>
</defs>
</svg>
